<svg version="1.1" id="Layer_1" xmlns="http://www.w3.org/2000/svg" xmlns:xlink="http://www.w3.org/1999/xlink" x="0px" y="0px"
	 width="100%" viewBox="0 0 128 128" enable-background="new 0 0 128 128" xml:space="preserve">
<path fill="#0aecfe" opacity="1.000000" stroke="none" 
	d="
M24.912239,46.373100 
	C25.153574,45.803997 25.390100,45.594917 25.886600,45.607403 
	C29.280588,46.821808 30.246592,52.382919 35.015465,50.424416 
	C35.716080,54.239594 33.011780,58.257938 37.120804,61.246002 
	C37.775002,62.028404 38.345005,62.533882 39.017761,63.321266 
	C39.768013,64.003197 40.415508,64.403221 41.287392,64.867828 
	C41.511784,64.932411 41.978645,64.943970 42.113564,65.231384 
	C42.845097,65.621399 43.441704,65.723999 44.280346,65.857651 
	C44.522377,65.888702 44.977989,65.713799 45.258507,65.823654 
	C46.009251,66.300667 46.479473,66.667816 46.928253,67.373695 
	C46.266949,69.797424 45.627083,71.882439 44.591152,73.975800 
	C40.441086,72.667694 36.687080,71.351242 32.933075,70.034798 
	C32.933075,70.034798 32.993450,70.006050 32.870140,69.733147 
	C32.150772,69.316551 31.554707,69.172859 30.958643,69.029175 
	C30.958643,69.029175 30.998917,68.998901 30.983162,68.725555 
	C30.629536,68.307678 30.291666,68.163147 29.953794,68.018616 
	C29.953794,68.018616 30.000256,67.998917 29.984600,67.724754 
	C29.631710,67.302467 29.294472,67.154335 28.957235,67.006210 
	C28.957235,67.006210 29.003429,66.998993 29.077480,66.683914 
	C29.102667,65.909691 29.053804,65.450562 29.006207,64.579193 
	C29.472870,60.024124 27.857855,56.982090 24.113430,54.639587 
	C23.973454,53.194534 23.895105,52.144085 23.816755,51.093632 
	C24.184969,49.645397 24.553183,48.197159 24.912239,46.373100 
z
M24.175056,55.034184 
	C27.857855,56.982090 29.472870,60.024124 28.686054,64.561249 
	C27.937994,64.970940 27.511353,64.986336 26.994320,64.650955 
	C25.911110,62.184319 24.918293,60.068470 23.925474,57.952618 
	C23.908812,57.512802 23.892147,57.072987 23.941463,56.074780 
	C24.063311,55.355656 24.119183,55.194920 24.175056,55.034184 
z
M34.955956,49.977703 
	C30.246592,52.382919 29.280588,46.821808 26.104385,45.515308 
	C26.035336,44.984680 26.022438,44.783508 26.310345,44.202362 
	C26.892782,43.616455 26.996868,43.342892 26.923405,43.001694 
	C26.923405,43.001694 26.925673,42.932087 27.290844,42.903015 
	C28.451942,41.608772 29.247868,40.343609 30.043791,39.078442 
	C30.264494,38.829895 30.485197,38.581348 31.275105,38.411743 
	C34.928780,37.757137 38.962547,37.978497 40.880630,36.071674 
	C43.943295,33.026989 47.114189,32.046585 51.014118,31.973198 
	C53.080112,32.892345 55.146111,33.811497 57.439693,35.213882 
	C55.879848,37.858971 54.092415,40.020828 51.915245,42.009300 
	C49.135181,41.800240 46.723827,41.549919 44.359699,41.781586 
	C41.187668,42.092419 37.388390,41.786217 36.947300,46.830711 
	C36.176727,48.040604 35.566341,49.009155 34.955956,49.977703 
z
M50.667786,31.787996 
	C47.114189,32.046585 43.943295,33.026989 40.880630,36.071674 
	C38.962547,37.978497 34.928780,37.757137 31.518387,38.341423 
	C36.034077,31.540400 42.883141,30.716307 50.667786,31.787996 
z
M32.756760,70.383553 
	C36.687080,71.351242 40.441086,72.667694 45.030174,74.032761 
	C48.197620,73.981247 50.529984,73.881111 53.190849,73.802177 
	C54.804409,73.885681 56.089470,73.947975 57.374527,74.010277 
	C48.644867,78.579498 39.199184,77.330704 32.756760,70.383553 
z
M57.623440,73.896576 
	C56.089470,73.947975 54.804409,73.885681 53.008301,73.564400 
	C52.995758,70.588638 53.494267,67.871849 54.227348,65.012802 
	C54.902672,64.560181 55.343418,64.249817 56.088482,64.145515 
	C57.583149,66.884880 58.773495,69.418182 59.963840,71.951485 
	C59.266678,72.561943 58.569515,73.172409 57.623440,73.896576 
z
M68.036942,63.183578 
	C67.961914,63.469437 67.803696,63.697605 67.171753,64.004860 
	C66.693237,64.240700 66.512108,64.395996 66.532440,64.429680 
	C66.662186,64.644646 66.836288,64.832848 66.995789,65.029861 
	C66.233147,65.998840 65.470512,66.967819 64.269173,67.760925 
	C62.192711,65.369911 60.554947,63.154785 58.976875,60.568260 
	C59.733318,57.814240 60.430073,55.431622 61.365273,53.262970 
	C61.764908,54.312218 61.926090,55.147491 62.065865,56.350639 
	C63.673729,58.823586 65.303001,60.928661 67.209473,63.063572 
	C67.670090,63.123459 67.853516,63.153519 68.036942,63.183578 
z
M58.917183,60.939659 
	C60.554947,63.154785 62.192711,65.369911 63.989258,67.911835 
	C62.968342,69.454842 61.788647,70.671051 60.286396,71.919373 
	C58.773495,69.418182 57.583149,66.884880 56.148567,63.908890 
	C55.904331,63.466202 55.970375,62.982601 55.970375,62.982601 
	C55.970375,62.982601 55.996883,63.003147 56.289246,62.930187 
	C57.360134,62.218037 58.138657,61.578846 58.917183,60.939659 
z
M53.992771,65.155067 
	C53.494267,67.871849 52.995758,70.588638 52.679798,73.543198 
	C50.529984,73.881111 48.197620,73.981247 45.426239,74.024414 
	C45.627083,71.882439 46.266949,69.797424 47.235123,67.292244 
	C48.039158,66.529976 48.514885,66.187889 48.990612,65.845795 
	C49.891602,65.765572 50.792595,65.685349 52.178078,65.283272 
	C53.105968,65.025970 53.549370,65.090515 53.992771,65.155067 
z
M51.915245,42.009300 
	C49.208832,42.704762 46.061127,43.030025 43.035801,43.822487 
	C41.211567,44.300343 39.577602,45.504570 37.482811,46.485886 
	C37.388390,41.786217 41.187668,42.092419 44.359699,41.781586 
	C46.723827,41.549919 49.135181,41.800240 51.915245,42.009300 
z"/>
<path fill="#a80bfe" opacity="1.000000" stroke="none" 
	d="
M75.947937,88.973396 
	C75.947937,88.973396 76.100464,88.630989 76.401825,88.238785 
	C77.512833,85.920654 78.322472,83.994728 79.444077,81.975479 
	C80.802444,80.303894 81.848846,78.725632 83.020088,76.867493 
	C83.441643,76.052414 83.738365,75.517212 84.296288,75.206238 
	C83.527588,78.808235 82.497681,82.186005 81.468933,85.559990 
	C84.259094,85.422783 86.657547,85.304840 89.043503,85.381180 
	C89.030991,85.575462 88.941841,85.954498 88.735359,86.081917 
	C88.267311,86.422745 88.101479,86.694565 88.024948,87.025162 
	C88.018509,87.025528 88.041702,87.051010 87.640411,87.031906 
	C85.660881,87.413300 84.060547,87.743332 82.509247,88.229744 
	C79.733528,89.100090 76.987343,90.064644 74.279434,90.692780 
	C74.869347,89.921623 75.408646,89.447510 75.947937,88.973396 
z
M100.639008,38.875061 
	C101.829399,40.497231 102.717606,41.976364 103.417580,43.879745 
	C100.599060,42.812248 97.650032,41.686882 95.414108,39.741795 
	C92.161888,36.912601 89.006882,35.248569 84.648712,36.863884 
	C82.178116,37.779594 79.562103,38.302948 77.005318,38.656693 
	C76.981926,37.848892 76.964806,37.387417 77.020447,36.593521 
	C79.109756,34.668262 81.126297,33.075420 83.142845,31.482574 
	C83.558266,31.446167 83.973679,31.409758 84.961823,31.601990 
	C86.383087,31.864475 87.231628,31.898317 88.080162,31.932156 
	C92.165718,34.198776 96.251274,36.465397 100.639008,38.875061 
z
M76.947685,36.925938 
	C76.964806,37.387417 76.981926,37.848892 76.968689,38.994057 
	C76.627930,40.530560 76.317535,41.383373 76.007141,42.236191 
	C75.978546,42.516827 75.851402,42.741749 75.014374,42.969318 
	C71.274925,42.366512 68.146805,41.705349 65.018677,41.044182 
	C65.018677,41.044186 65.118660,40.561470 65.174881,40.321606 
	C65.637444,39.772957 66.043770,39.464176 67.099426,39.072029 
	C70.815063,38.301090 73.881378,37.613514 76.947685,36.925938 
z
M77.020447,36.593521 
	C73.881378,37.613514 70.815063,38.301090 67.334671,38.963005 
	C70.723473,33.666912 76.290695,31.929302 82.757355,31.351669 
	C81.126297,33.075420 79.109756,34.668262 77.020447,36.593521 
z
M106.109070,51.579834 
	C106.075829,52.403122 106.000137,52.860622 105.527054,53.580971 
	C103.205475,49.640926 99.859200,51.805492 96.645920,51.983131 
	C95.871803,51.599506 95.400940,51.249557 94.930069,50.899605 
	C94.813965,50.324211 94.697868,49.748817 94.312248,49.030914 
	C92.111549,46.850815 90.180367,44.813225 88.279984,42.194656 
	C90.501381,42.177902 92.733086,42.619179 94.873146,43.334595 
	C98.250595,44.463676 101.566505,45.776817 104.908470,47.012047 
	C104.908470,47.012047 105.073975,46.955009 105.161224,46.947674 
	C105.521194,48.364906 105.793907,49.789478 106.109070,51.579834 
z
M104.947433,46.751335 
	C101.566505,45.776817 98.250595,44.463676 94.873146,43.334595 
	C92.733086,42.619179 90.501381,42.177902 88.083450,41.913086 
	C84.143288,42.301929 80.430450,42.391373 76.362381,42.358501 
	C76.317535,41.383373 76.627930,40.530560 76.974953,39.340378 
	C79.562103,38.302948 82.178116,37.779594 84.648712,36.863884 
	C89.006882,35.248569 92.161888,36.912601 95.414108,39.741795 
	C97.650032,41.686882 100.599060,42.812248 103.503265,44.189728 
	C103.886604,44.232407 103.996010,44.389351 104.251648,44.992615 
	C104.518898,45.709335 104.722130,45.884304 105.007568,45.963837 
	C105.000504,46.139431 104.993446,46.315029 104.947433,46.751335 
z
M94.638199,51.129036 
	C95.400940,51.249557 95.871803,51.599506 96.654587,52.404907 
	C96.960602,61.054943 94.186279,65.234550 87.129669,67.378967 
	C84.788971,68.090279 82.347092,68.468681 79.558334,68.988281 
	C76.805214,69.989441 74.445236,71.001602 72.085258,72.013763 
	C73.116951,67.182365 75.197624,64.513443 81.038895,65.182770 
	C90.155556,66.227409 93.542480,62.303936 94.638199,51.129036 
z
M71.972855,72.237991 
	C74.445236,71.001602 76.805214,69.989441 79.597092,69.308395 
	C80.355873,70.429024 80.682770,71.218536 81.052460,72.334358 
	C82.075203,73.434448 83.055145,74.208229 84.035088,74.982010 
	C83.738365,75.517212 83.441643,76.052414 82.680855,76.713020 
	C78.746712,75.545952 75.276634,74.253464 71.806557,72.960983 
	C71.824516,72.794739 71.842484,72.628487 71.972855,72.237991 
z
M64.704460,41.154549 
	C68.146805,41.705349 71.274925,42.366512 74.833496,43.050911 
	C73.990257,44.841721 72.716591,46.609291 70.879120,48.675056 
	C69.540596,48.977764 68.765892,48.982285 67.834473,48.686462 
	C65.885979,47.606483 64.094208,46.826843 62.302429,46.047203 
	C62.998371,44.453106 63.694309,42.859009 64.704460,41.154549 
z
M67.991180,48.986805 
	C68.765892,48.982285 69.540596,48.977764 70.703125,48.947117 
	C70.664383,52.828415 70.237816,56.735844 69.231323,60.687103 
	C67.431709,57.825188 66.212013,54.919434 65.332947,51.973297 
	C66.446114,50.950874 67.218643,49.968842 67.991180,48.986805 
z
M64.992317,52.013680 
	C66.212013,54.919434 67.431709,57.825188 68.954056,60.964386 
	C69.033218,61.757397 68.809738,62.316959 68.311600,63.030052 
	C67.853516,63.153519 67.670090,63.123459 67.225372,62.690567 
	C65.338463,60.186081 63.712868,58.084427 62.087269,55.982769 
	C61.926090,55.147491 61.764908,54.312218 61.263149,52.983341 
	C60.845501,52.307274 60.768429,52.124802 60.691353,51.942333 
	C60.768311,51.515411 60.845268,51.088493 61.276718,50.546585 
	C62.751575,50.958958 63.871944,51.486320 64.992317,52.013680 
z
M81.009659,72.008049 
	C80.682770,71.218536 80.355873,70.429024 79.990234,69.319405 
	C82.347092,68.468681 84.788971,68.090279 87.129669,67.378967 
	C94.186279,65.234550 96.960602,61.054943 96.957825,52.438583 
	C99.859200,51.805492 103.205475,49.640926 105.468048,53.924709 
	C104.673592,57.750084 103.540741,61.494564 101.916077,65.698959 
	C99.978996,68.153137 98.533737,70.147400 96.859749,71.850769 
	C91.423897,71.709267 86.216774,71.858658 81.009659,72.008049 
z
M73.582428,95.862930 
	C73.415215,94.457344 73.645370,93.052856 74.052170,91.319099 
	C76.987343,90.064644 79.733528,89.100090 82.509247,88.229744 
	C84.060547,87.743332 85.660881,87.413300 87.594307,87.379387 
	C85.578819,92.107231 83.663994,97.061188 77.158081,96.045921 
	C76.098656,95.985291 75.039223,95.924660 73.582428,95.862930 
z
M96.859749,71.850769 
	C94.596428,76.350487 92.104370,80.559319 89.334167,84.977524 
	C86.657547,85.304840 84.259094,85.422783 81.468933,85.559990 
	C82.497681,82.186005 83.527588,78.808235 84.296288,75.206238 
	C83.055145,74.208229 82.075203,73.434448 81.052460,72.334358 
	C86.216774,71.858658 91.423897,71.709267 96.859749,71.850769 
z
M65.332947,51.973297 
	C63.871944,51.486320 62.751575,50.958958 61.367401,50.233330 
	C61.400089,48.916565 61.696583,47.798065 62.147751,46.363388 
	C64.094208,46.826843 65.885979,47.606483 67.834473,48.686462 
	C67.218643,49.968842 66.446114,50.950874 65.332947,51.973297 
z"/>
<path fill="#CED0DA" opacity="1.000000" stroke="none" 
	d="
M65.854439,93.884293 
	C53.446320,93.608810 41.036724,93.379486 28.632452,92.983467 
	C27.446184,92.945595 26.293110,91.868004 25.124626,91.273102 
	C26.304543,90.523972 27.476484,89.138840 28.665606,89.123924 
	C40.771999,88.972137 52.881191,89.043518 65.477036,89.458023 
	C65.927788,91.203850 65.891113,92.544067 65.854439,93.884293 
z"/>
<path fill="#CED0DA" opacity="1.000000" stroke="none" 
	d="
M48.065166,82.369034 
	C49.739048,82.346077 51.412933,82.323112 53.682938,82.511642 
	C54.880478,82.607552 55.481895,82.491974 56.083313,82.376404 
	C57.779007,82.328140 59.474697,82.279884 61.979065,82.230301 
	C64.131050,82.287865 65.474358,82.346756 66.854980,82.753319 
	C66.908867,84.031761 66.925453,84.962524 66.942047,85.893280 
	C53.629196,85.932091 40.316345,85.970901 26.533758,85.534088 
	C27.461355,84.374313 28.823589,83.194527 30.262157,83.092644 
	C36.183876,82.673271 42.128784,82.581360 48.065166,82.369034 
z"/>
</svg>
