<svg xmlns="http://www.w3.org/2000/svg" id="master-artboard" width="24" height="24" x="0" y="0" viewBox="0 0 24 24"><path id="ee-background" d="M0 0h24v24H0z" style="fill:#fff;fill-opacity:0;pointer-events:none"/><path fill="#0040b6" d="M3.24 11.766a.1.1 0 0 1-.005-.042.6.6 0 0 0-.045-.122q-.002-.002-.004-.023c-.006-.024-.013-.035-.02-.047-.062-.314-.125-.629-.178-.95a.3.3 0 0 1 .045.131.43.43 0 0 0 .138.314c.004-.056-.009-.109-.012-.162-.004-.05.002-.102.006-.144l.022.1c.102.489.267.955.515 1.399.224.43.5.81.847 1.148.039.043.071.084.11.115.236.184.473.367.71.559q.048.039.093.067s0-.002.002.003q.013-.001.031-.007a.07.07 0 0 1 .036.032c-.03.036-.059.084-.09.086-.154.01-.318.07-.454-.062-.008-.008-.03-.003-.05-.005q-.014-.006-.018-.022-.013-.017-.021-.024l-.004-.005q-.025-.013-.043-.018l-.001-.007a1 1 0 0 0-.102-.065.2.2 0 0 1-.04-.05c-.14-.144-.281-.28-.427-.419-.011-.007-.015-.013-.016-.029q-.15-.211-.3-.409c-.005-.006-.023-.002-.039-.006-.01-.008-.012-.014-.015-.027q-.009-.017-.02-.02l-.002-.006a.1.1 0 0 0-.018-.022l-.006-.023q-.023-.038-.047-.065l-.001-.004q-.008-.017-.02-.021l-.001-.006a.04.04 0 0 0-.018-.02.04.04 0 0 1-.008-.022.2.2 0 0 0-.04-.047l-.007.002.002-.024a3 3 0 0 0-.12-.207l.002-.011c-.002-.075-.007-.14-.093-.156q.001.002.001-.01a21 21 0 0 0-.188-.412v-.005q-.007-.014-.015-.018l-.008-.047a2 2 0 0 0-.065-.165M5.2 10.711c.038.128.077.255.12.39.095.19.188.372.274.561-.046-.04-.081-.093-.126-.136-.037-.034-.085-.056-.132-.091-.054-.083-.104-.158-.155-.243-.025-.088-.049-.167-.072-.256-.022-.113-.046-.216-.063-.326q0-.126-.01-.243-.011.012-.03.014a.3.3 0 0 1-.006-.1.3.3 0 0 0 .015-.087c-.003-.279.01-.555.09-.825.017-.058.018-.122.027-.182l.006-.005c.01-.025.013-.045.018-.065l.005-.005q.014-.037.018-.066l.005-.004q.013-.037.018-.066l.005-.003c.003-.016 0-.029 0-.05.032-.073.06-.139.096-.21.178-.334.417-.607.707-.838a2.8 2.8 0 0 1 1.262-.58c.144-.01.28-.033.418-.04.15-.008.301-.002.451-.002-.023.033-.05.053-.072.05a1 1 0 0 0-.468.032c-.151.042-.309.064-.458.113a4 4 0 0 0-.485.197c-.121.057-.265.09-.33.23H6.32c-.111.058-.225.102-.314.177-.222.186-.433.387-.547.665q-.024.052-.053.103c-.046.085-.102.166-.134.256-.037.108-.044.226-.08.335-.09.27-.085.548-.079.827 0 .018.024.034.038.06l.008.038c0 .04 0 .08-.006.135.003.092-.063.187.047.24"/><path fill="#0040b6" d="M6.328 7.875c.065-.14.209-.173.33-.23.158-.073.32-.142.485-.197.149-.049.307-.07.458-.113.155-.042.309-.064.468-.033.022.004.05-.016.072-.049-.15 0-.3-.006-.45.002-.139.007-.275.03-.41.037.248-.036.495-.085.742-.084a3.5 3.5 0 0 1 1.155.21c.032.011.104-.014.12-.044.12-.204.23-.415.343-.624q.087-.162.177-.335c.099-.137.196-.265.286-.398.026-.038.03-.09.045-.137.023.042.046.083.067.133-.03.052-.059.094-.096.148-.224.41-.445.803-.656 1.202-.132.25-.087.303-.438.195A3.23 3.23 0 0 0 7.05 7.55c-.25.08-.481.215-.72.325m2.043-.54.05-.018c-.008-.015-.016-.041-.026-.042q-.078-.004-.155-.002l-.002.036c.038.009.076.018.133.027"/><path fill="#340186" d="M16.592 5.185c.21.037.423.058.628.114 1.314.362 2.324 1.131 3.03 2.316.024.05.047.085.07.12l.001.005q.007.016.016.019c0 .004.002.007.006.022.007.017.012.021.018.025q.002.001.005.025c.012.055.023.096.036.136.098.29.196.58.286.868-.034-.074-.058-.146-.087-.216q-.07-.172-.152-.35a4.6 4.6 0 0 0-.512-1.011 4.4 4.4 0 0 0-1.139-1.164c-.075-.052-.156-.095-.234-.143l-.004-.006a.1.1 0 0 0-.044-.017v-.006a.94.94 0 0 0-.781-.395l-.062-.028c-.021-.008-.036-.011-.055-.015q-.006 0-.013-.01a2 2 0 0 0-.202-.061c-.275-.057-.54-.112-.807-.175z"/><path fill="#0040b6" d="M7.213 12.775c.363.074.73.12 1.101.093.601-.044 1.156-.216 1.645-.58.25-.186.464-.404.655-.656.034.008.056.012.077.025-.374.553-.888.913-1.5 1.133-.432.155-.884.183-1.346.165-.081-.008-.154-.01-.235-.013-.033-.002-.06-.002-.092-.01q-.205-.058-.39-.113zM5.52 5.761a.3.3 0 0 1 .052.002c.098-.03.18-.063.265-.087.046.014.09.02.129.03-.092.054-.177.1-.27.149-.529.266-.97.637-1.38 1.049-.04.04-.066.092-.106.143q-.153.186-.295.353c-.013-.028-.025-.047-.033-.073.029-.047.05-.089.08-.124.194-.23.39-.457.593-.689.143-.114.274-.232.416-.335.176-.127.362-.242.552-.37a.1.1 0 0 0-.003-.048"/><path fill="#0040b6" d="M5.835 5.668c-.082.032-.165.065-.26.093 0-.022.007-.046.022-.054.425-.22.876-.365 1.345-.455a4.6 4.6 0 0 1 1.14-.07c.15.008.3.03.465.05.02.005.025.01.03.024q.017.042.018.069c-.019-.002-.03-.003-.046-.01-.13-.02-.255-.04-.38-.042-.287-.004-.576-.023-.86.009-.306.034-.607.118-.92.181q-.283.103-.554.205m1.371 7.102a.3.3 0 0 1-.087.049 1 1 0 0 1-.167-.025c-.063-.025-.12-.046-.18-.073a.1.1 0 0 0-.032-.016q-.006.001-.015-.006a.1.1 0 0 0-.032-.016.02.02 0 0 1-.015-.007q-.027-.014-.046-.02l-.003-.004q-.025-.014-.043-.02s0 .002-.004-.004q-.025-.013-.043-.019l-.004-.005a.2.2 0 0 0-.043-.018l-.003-.007a1 1 0 0 0-.09-.04l-.003-.006a.1.1 0 0 0-.03-.016q-.008.002-.011-.009c-.024-.03-.043-.055-.068-.07a2.6 2.6 0 0 1-.645-.555c-.115-.135-.202-.293-.302-.44.043.027.091.049.128.083.045.043.08.096.128.144.017.002.022.007.028.026.006.018.011.022.019.024 0 0 .005.008.006.023a.5.5 0 0 0 .076.088c.376.428.827.74 1.376.903q.048.014.105.036"/><path fill="#340186" d="M11.624 7.78c.165-.261.312-.536.5-.78a4.8 4.8 0 0 1 1.219-1.09c.068-.045.141-.08.222-.116.017.009.023.013.025.025a4.8 4.8 0 0 0-1.321 1.11 4.8 4.8 0 0 0-.603.92.3.3 0 0 1-.042-.07m1.97-1.967-.02-.02c.37-.232.773-.39 1.194-.488.315-.073.641-.1.982-.145.185.008.35.016.514.02q.141.003.282.003c.01 0 .02 0 .038.002.009.016.01.031.003.055-.06.003-.11-.003-.17-.01-.158-.008-.306-.028-.452-.02a8 8 0 0 0-.728.066c-.216.032-.436.07-.642.142-.339.117-.668.262-1 .395"/><path fill="#0040b6" d="M3.163 10.712c-.002.05-.008.102-.004.153.003.053.016.106.012.162a.43.43 0 0 1-.138-.314c-.002-.046-.023-.093-.043-.141a.2.2 0 0 1-.008-.088c.002-.018-.001-.024-.004-.03 0-.283 0-.566.01-.856.024.072.038.15.051.229l.016-.001.04-.3zm-.128-.761q0-.002 0 0m7.109-4.077c-.01.052-.014.105-.04.143-.09.133-.187.26-.29.397-.01.007-.02.005-.02-.002-.007-.018-.014-.029-.02-.048q.064-.106.125-.2c.05-.077.108-.152.068-.255l.02-.018q-.002-.004-.008-.007-.182-.102-.366-.198c-.067-.035-.14-.06-.215-.097-.058-.03-.115-.049-.162-.082-.039-.028-.066-.073-.09-.11q.034.002.055.006.469.231.943.47m.97 3.897q.028-.688.254-1.344a.16.16 0 0 1 .073.043 17 17 0 0 1-.115.531.2.2 0 0 0-.026.07c-.024.166-.046.333-.07.492l-.02-.018s-.005.004-.005.006l-.015.246-.027-.001-.016-.157zM4.548 6.518q-.294.342-.586.685c-.03.035-.051.077-.086.128-.102.16-.195.307-.288.446l-.015-.134c.213-.394.5-.73.813-1.047a1 1 0 0 1 .114-.1.1.1 0 0 1 .048.022"/><path fill="#0040b6" d="m3.095 9.515-.04.31-.016.002a3 3 0 0 0-.05-.239.23.23 0 0 1 .001-.113c.019-.095.027-.176.035-.258.057-.249.114-.498.18-.74q.008.194.005.389a.03.03 0 0 1-.007.02q-.027.075-.039.14l-.069.49m7.597 2.133a.4.4 0 0 1-.071-.02c.116-.283.239-.559.372-.847.032-.079.053-.145.08-.232l.022.094q.024-.034.04-.043a.5.5 0 0 1-.007.094c-.025.095-.044.184-.07.277-.074.157-.14.31-.212.469q-.082.107-.154.208"/><path fill="#0040b6" d="M3.21 8.861v-.39c.118-.28.235-.547.358-.821.01.035.014.076.018.135a4.3 4.3 0 0 0-.359 1.074zm7.925 1.731-.04.052-.023-.094a3 3 0 0 1-.074.225q.05-.485.113-.995l.036-.142.016.157h.027l.015-.245c0-.002.005-.007.006-.006.006.003.01.007.017.028-.016.296-.033.574-.055.858-.006.017-.008.03-.013.051-.003.027-.004.045-.01.068q-.008.026-.011.044zm-6.58-4.078c-.018-.004-.029-.012-.047-.02.275-.279.596-.505.95-.7l.056.022c-.181.12-.367.236-.543.363-.142.103-.273.22-.416.335"/><path fill="#340186" d="m20.696 8.837-.294-.87a1 1 0 0 1-.035-.13q.085.15.175.33c.1.331.195.655.28.986-.018-.018-.026-.042-.035-.065zm-9.254-.377-.067-.04q.11-.318.242-.636c.018.018.03.041.047.073q-.107.308-.222.602m5.098-3.283a3 3 0 0 1-.276.003 28 28 0 0 1-.503-.02c.11-.01.228-.025.346-.022a4 4 0 0 1 .432.039"/><path fill="#0040b6" d="M3.327 12.01q.094.189.188.404a8 8 0 0 1-.188-.404m.279.588q.06.083.119.194a2 2 0 0 1-.119-.194m-.091-.167c.085.007.09.073.091.15a1 1 0 0 1-.091-.15M3.02 9.224a2 2 0 0 1-.028.241q.005-.113.028-.24m.22 2.549q.03.06.063.15a1 1 0 0 1-.063-.15m-.05-.164a.4.4 0 0 1 .044.106.4.4 0 0 1-.045-.106m2.534.214a.4.4 0 0 1-.073-.076.4.4 0 0 1 .073.076"/><path fill="#340186" d="M20.32 7.727a.6.6 0 0 1-.068-.104.6.6 0 0 1 .067.104"/><path fill="#0040b6" d="M5.523 5.809a.1.1 0 0 1-.057-.017.1.1 0 0 1 .05-.033.07.07 0 0 1 .007.05m-2.357 5.73q.01.007.02.035-.01-.007-.02-.035"/><path fill="#340186" d="M20.362 7.8q-.01.003-.017-.013.01-.007.017.013m-.025-.047q-.009.004-.016-.013.011-.006.016.013"/><path fill="#0040b6" d="M3.312 11.983q.009-.003.014.013-.009.004-.014-.013m2.331-.269q-.011.006-.018-.013.012-.006.018.013M2.977 10.46q.007.001.006.014-.007 0-.006-.015"/><path fill="#340186" d="M20.923 9.708c.077 1.28-.246 2.463-.878 3.565-.646 1.125-1.314 2.237-1.97 3.357-.484.827-.962 1.657-1.443 2.486-.055.096-.127.148-.243.149-.776.006-1.552.015-2.34.025a.2.2 0 0 1-.092-.024 1 1 0 0 1 .208-.026c.311-.006.612-.025.91-.016.136.004.269-.081.404-.008.007.003.021-.008.032-.01.09-.02.178-.05.267-.055.168-.009.337.004.504-.006a.23.23 0 0 0 .15-.08c.083-.1.15-.214.223-.324.057-.086.06-.26.009-.328q.934-1.587 1.869-3.158.312-.523.64-1.03c.05-.01.106-.014.135-.045.048-.05.08-.118.116-.18.034-.056.06-.117.097-.171.029-.045.068-.082.102-.124.093-.114.198-.222.275-.346.072-.116.111-.25.17-.375.022-.044.069-.076.088-.12.071-.165.135-.334.205-.5.022-.053.053-.102.077-.154.021-.045.054-.092.053-.138-.002-.052-.01-.131-.105-.107.018-.064.038-.119.052-.175q.095-.361.188-.737c.021-.106.043-.201.066-.306q.027-.214.058-.403c.009.077.025.15.01.216-.09.413-.187.825-.28 1.237q-.01.045-.016.091l.037.014c.055-.107.129-.21.162-.323.056-.19.095-.388.125-.585q.052-.346.077-.693c.012-.162.005-.326.003-.488q-.004-.23-.012-.46.014.074.038.158a.2.2 0 0 1 .011.076c.006.052.012.086.018.12"/><path fill="#340186" d="M20.856 9.346q.008.238.012.467c.002.162.01.326-.003.488a9 9 0 0 1-.077.693q-.044.297-.125.585c-.033.114-.107.216-.162.323l-.037-.014q.006-.046.015-.091c.094-.412.191-.824.281-1.237.015-.067-.001-.14-.01-.227-.024-.384-.015-.752-.064-1.113-.044-.32-.152-.631-.232-.946q.076.172.147.345c.029.07.053.142.087.216.039.085.069.169.1.253.008.023.016.047.032.074.01.013.01.024.007.046-.009.026-.013.039-.024.05l-.069-.03.033.166a.5.5 0 0 1 .05-.09l.035.002zm-.134-.217.011.013.005-.02c-.005 0-.01-.001-.016.007m-.01-.149q-.005.003 0 0m-.03-.086q.002 0 0 0M14.154 19.24q-.096.005-.202.02a.3.3 0 0 1-.087-.04q-.008-.006-.004-.018.008-.018.005-.028a1 1 0 0 1 .051-.13l.174-.016c.01.003.015.004.02.013z"/><path fill="#340186" d="M20.81 9.26q.005-.018.018-.044.018.031.026.082c-.011.008-.02.007-.037 0q-.009-.025-.007-.038"/><path fill="#0040b6" d="M5.2 10.702c-.111-.044-.045-.139-.048-.22q.03.098.048.22"/><path fill="#00d7ff" d="M4.545 13.36a4.2 4.2 0 0 1-.835-1.142c.001-.057.005-.108-.011-.153-.106-.296-.215-.59-.314-.885q.055.011.096.024c.097.03.192.065.29.087.054.012.121-.016.168.005.126.06.23-.058.35-.032.01.002.027-.034.042-.05.018-.019.036-.04.057-.054q.108-.067.228-.138l.038.028c.007-.019.01-.04.023-.057.028-.04.053-.089.093-.111.051-.03.116-.037.178-.046.05.126.09.247.142.363.108.24.223.475.418.66v.008a.3.3 0 0 0 .052.064l.018-.001v.006a.2.2 0 0 0 .024.04l.002.007c.073.086.142.165.21.254l-.017.112-.042.018-.05-.114-.035.02c-.008.065-.018.13-.02.194-.004.068-.027.098-.102.091a4 4 0 0 0-.373-.017c-.097 0-.184-.004-.24-.104-.013-.024-.068-.04-.101-.036-.15.015-.261-.148-.42-.085-.006.003-.022-.02-.035-.027-.055-.026-.109-.063-.167-.072-.116-.017-.234-.019-.352-.026-.067-.005-.074.038-.052.083.04.08.08.16.134.231.207.272.419.539.628.814-.009.019-.017.03-.025.042"/><path fill="#45a9d1" d="M4.92 14.14c.003.007.007.011.022.022.448.31.91.563 1.436.709.5.15 1.003.244 1.52.229a.8.8 0 0 1 .18.021c-.114.365-.317.67-.56.947q-.604.683-1.225 1.35-.586.633-1.28 1.145c-.12.088-.264.14-.394.202a.5.5 0 0 1 .078-.061l.066-.053.097-.068c.01-.006.013-.01.019-.023a.2.2 0 0 1 .051-.046c.047-.042.096-.078.123-.127.182-.333.463-.572.748-.81.209-.174.414-.353.623-.527.119-.1.25-.185.361-.29.078-.074.133-.173.198-.26l.01-.001a.5.5 0 0 0 .066-.076q.205-.211.409-.415.009-.005.015-.018c.012-.013.017-.02.029-.031a.3.3 0 0 0 .036-.05v-.018h.006c.015-.01.021-.016.031-.025q.009-.004.016-.018l.04-.074.006-.001c.012-.009.017-.016.029-.027l.157-.258q.013-.025.02-.044c.003-.001.004-.007.004-.007s-.005.009-.01.013c-.01.017-.014.03-.027.043-.09.03-.17.062-.252.084a.2.2 0 0 0-.084-.038c-.22-.039-.445-.061-.66-.117q-.586-.15-1.071-.513c-.067-.05-.15-.081-.228-.123a1 1 0 0 1-.039.11l-.004-.087c-.01-.05-.007-.105-.033-.125-.113-.086-.235-.16-.352-.241-.128-.088-.262-.173-.264-.354l.018-.001s0-.002.004.005q.024.013.043.018l.002.005q.01.018.02.025"/><path fill="#0040b6" d="M6.37 14.865c-.517-.14-.98-.392-1.423-.702.01-.005.032-.01.04-.002.136.132.3.073.454.062.031-.002.06-.05.098-.084.233.102.449.233.682.315a5.25 5.25 0 0 0 2.493.268 5.6 5.6 0 0 0 1.527-.413q.226-.1.467-.201c.067-.013.145.002.143-.094l.004-.001a.1.1 0 0 0 .024-.023c.005-.002.015-.003.02.005-.006.053 0 .114-.027.14a1 1 0 0 1-.214.152c-.206.117-.412.235-.623.341-.15.076-.305.15-.465.197-.187.056-.38.092-.574.123-.208.033-.42.052-.63.075a4 4 0 0 1-.308.022q-.1.004-.197-.008c-.169-.023-.335-.063-.504-.072-.277-.014-.556.002-.824-.1-.047-.017-.108 0-.162 0"/><path fill="#0040b6" d="m10.698 14.108-.457.201a5.6 5.6 0 0 1-1.527.413 5.25 5.25 0 0 1-2.493-.268c-.233-.082-.45-.213-.681-.324-.018-.01-.028-.017-.052-.026l-.026.003v-.006c-.031-.029-.062-.048-.093-.068l-.71-.55c-.039-.031-.071-.072-.11-.115a.1.1 0 0 1 .028-.045c.08.057.154.117.232.184.022.027.039.05.06.066.498.395 1.04.711 1.655.884.272.077.55.155.829.184.351.036.708.022 1.072.03.287-.043.565-.076.838-.133.538-.112 1.037-.331 1.525-.597.352-.198.652-.448.927-.73.073-.075.143-.153.223-.229.029.001.048.001.063.009-.114.132-.212.271-.337.38-.249.214-.512.411-.77.616 0 0-.01.001-.02.005a.1.1 0 0 0-.024.023h-.007q-.08.047-.145.093M3.375 11.18q.164.442.324.885c.016.045.012.096.01.145-.255-.434-.42-.9-.522-1.39l-.022-.1-.07-1.194c.023-.174.045-.337.07-.5a.6.6 0 0 1 .039-.13c.008.021.01.04.01.068a.2.2 0 0 1-.01.066c-.025.315-.05.623-.06.932-.003.1.03.202.052.309a.4.4 0 0 1 .017.075q.011.074.022.134zm1.333 2.786a.6.6 0 0 1-.108-.072l-.076-.068a3 3 0 0 0-.107-.113 2 2 0 0 1-.129-.157q.21.193.42.41m-.443-.449a10 10 0 0 1-.332-.404c.01-.007.027-.01.031-.005q.151.197.3.41m.529.586-.035-.079q.043.015.092.055c-.003.008-.007.008-.022.009a.1.1 0 0 0-.035.015"/><path fill="#0040b6" d="M5.37 14.042a.3.3 0 0 1 .092.058.3.3 0 0 1-.093-.058m-1.504-1.038a.2.2 0 0 1-.046-.057q.022.016.046.057m-.095-.138a.1.1 0 0 1-.037-.04q.018.01.037.04m1.124 1.239q-.015.003-.04-.012.015-.003.04.012m.57.007q.002-.008.018-.008-.002.007-.018.008m-.545.022q-.008 0-.02-.017.007-.001.02.017m-1.123-1.226q-.008.003-.013-.012.006-.003.013.012m.115.167q-.006 0-.018-.015.009-.003.018.015m-.021-.026q-.01.005-.016-.012.007-.003.015.012m-.072-.114q-.007 0-.018-.015.009-.003.018.015m5.977-6.516.016.003q-.08.165-.169.328c-.112.21-.223.42-.342.624-.017.03-.089.055-.121.043a3.5 3.5 0 0 0-1.155-.209c-.247 0-.494.048-.749.078a2.9 2.9 0 0 0-1.264.59c-.29.23-.53.503-.713.834a.08.08 0 0 1-.045-.046c.548-.923 1.367-1.4 2.423-1.518.29.016.57.019.846.051.207.024.41.086.614.132.09.02.145.003.195-.092.139-.269.295-.529.45-.795q.014-.011.015-.022z"/><path fill="#0040b6" d="m5.249 8.671.042.044c-.023.07-.052.135-.085.216-.004.025-.004.035-.005.045 0 0 .002 0-.005.005a.3.3 0 0 0-.018.066s.002 0-.006.004q-.014.036-.017.066l-.006.004a.3.3 0 0 0-.018.066s.002 0-.006.005a.5.5 0 0 0-.04.09c-.104.329-.103.667-.091 1.006a1 1 0 0 0 .013.103c.009.063.012.11.016.161.004.012.008.018.014.029l.003.035c.023.104.047.207.061.32-.019.01-.03.01-.043.002-.143-.483-.199-.963-.106-1.454.055-.287.139-.563.297-.813"/><path fill="#0040b6" d="m5.157 10.265-.006.019c-.015-.012-.039-.028-.039-.046-.006-.279-.01-.557.079-.827.036-.109.043-.227.08-.335.032-.09.088-.17.134-.256q.029-.05.053-.103c.114-.278.325-.479.547-.665.089-.075.203-.119.314-.177-.1.087-.21.172-.315.263-.376.32-.609.73-.752 1.215l-.029.185s.002.001-.007.004c-.025.243-.042.483-.059.723m.179 1.17c.104.155.191.313.306.448.185.217.399.405.645.554a.2.2 0 0 1 .059.07.5.5 0 0 1-.12-.052l-.32-.197-.002-.007a7 7 0 0 0-.248-.265c-.01-.011-.036-.007-.055-.01l.001-.006a.2.2 0 0 0-.024-.04v-.006c0-.01 0-.014-.003-.024q-.037-.026-.067-.04v-.01c-.045-.083-.095-.155-.134-.232q-.103-.204-.197-.412l.005-.005zM5 10.28c-.018-.331-.02-.669.085-.997a.5.5 0 0 1 .04-.092c-.002.056-.003.12-.02.178-.08.27-.093.546-.09.825A.3.3 0 0 1 5 10.28"/><path fill="#0040b6" d="M5.061 10.946h.04c.031.079.055.158.08.246q0 .014-.012.01a3 3 0 0 1-.108-.256m-.015-.336q-.009-.003-.01-.034c-.003-.02-.007-.025-.013-.029l-.012-.149c.008-.017.017-.024.025-.031q.01.117.01.243m.092-1.428a.1.1 0 0 1 .01-.061.1.1 0 0 1-.01.061m.023-.07a.1.1 0 0 1 .011-.062.1.1 0 0 1-.011.062m.023-.07a.1.1 0 0 1 .011-.062.1.1 0 0 1-.01.062m.022-.069q-.007-.01-.003-.034.006.009.003.034m3.156-1.637-.124-.027.002-.036c.051 0 .103-.002.155.002.01.001.018.027.026.042z"/><path fill="#340186" d="M20.449 8.268c.085.321.193.632.237.952.049.36.04.73.057 1.105a6 6 0 0 1-.058.42c-.003-.105.008-.217.01-.33.002-.268 0-.537 0-.816-.053-.521-.156-1.02-.375-1.499-.064-.149-.123-.292-.193-.43-.07-.137-.152-.269-.222-.403l.035-.002c.214.309.375.645.509 1.003M16.427 5.23c.05.006.1.012.16.016.276.055.541.11.822.173.076.026.138.045.2.063q0-.002.015.008c.024.01.04.012.055.014l.06.03c.048.021.084.034.12.047l.627.329.031.018.003.006c.018.01.03.013.044.018v.008q.001.04-.008.06c-.089-.048-.172-.09-.252-.138-.43-.257-.902-.405-1.387-.517-.161-.037-.323-.07-.486-.113z"/><path fill="#340186" d="M18.563 6.025V5.96q.121.057.235.134c.45.316.83.7 1.14 1.164-.007.007-.017.008-.039.004-.06-.062-.101-.123-.152-.176-.103-.107-.211-.209-.318-.32-.172-.172-.338-.34-.516-.496-.107-.093-.233-.164-.35-.245m-.958-.551a1 1 0 0 1-.187-.054q.086.017.187.054m.25.1a.4.4 0 0 1-.11-.038.4.4 0 0 1 .11.038m.705.371q-.014.003-.04-.012.016-.003.04.012m-.887-.446q-.015.004-.046-.008.015-.004.046.008m.842.423q-.006.003-.021-.01.006-.003.021.01"/><path fill="#0040b6" d="M10.69 11.657c.051-.076.1-.144.164-.217.072-.111.134-.216.185-.325.02-.044.018-.098.026-.148.02-.088.038-.177.069-.266.014.075.017.149.02.231a4 4 0 0 1-.075.231c-.065.126-.123.247-.186.37-.01.008-.013.013-.017.027-.013.025-.022.044-.037.067l-.324.42-.188.187a2.85 2.85 0 0 1-1.027.603q-.025.001-.042.008h-.006c-.018.007-.03.014-.046.022h-.023c-.028.009-.047.017-.066.025H9.11c-.224.034-.436.08-.651.102-.203.02-.408.012-.613.018-.083.003-.166.012-.258.019a.2.2 0 0 1-.065-.022c-.037-.02-.077-.036-.111-.057a1 1 0 0 1 .113-.013 4 4 0 0 0 .329.022c.454.012.906-.016 1.337-.17.613-.22 1.127-.581 1.5-1.134"/><path fill="#0040b6" d="M7.518 12.932c-.03.01-.065.012-.115.02-.031.006-.048.005-.067-.004a8 8 0 0 0-.377-.15l.153.024c.14.035.27.07.406.11m.327.023q-.1.004-.22-.008.099-.004.22.008"/><path fill="#03faff" d="M3.915 7.409q.142-.181.294-.353c-.008.059-.009.096.066.094.107-.004.204 0 .302-.079.096-.076.23-.105.341-.164.167-.09.3-.216.436-.351.18-.18.287-.389.376-.615.009-.022-.017-.058-.026-.087l.27-.149c.087-.032.16-.058.24-.077.114.008.176.061.144.144-.08.205-.17.406-.26.606a.6.6 0 0 1-.108.15c-.096.099-.2.19-.298.286-.126.123-.241.26-.377.37-.241.197-.494.378-.742.566-.014.011-.021.032-.034.046-.085.101-.165.208-.258.301-.1.1-.213.185-.317.28-.125.114-.387.122-.52.002q.134-.317.27-.62.038-.082.09-.167c.01-.018.015-.031.025-.048.009-.016.012-.028.021-.045a.2.2 0 0 0 .018-.046q-.002.001.007.001a.2.2 0 0 0 .04-.047z"/><path fill="#03faff" d="M5.696 5.855c.017.028.043.064.034.086a1.7 1.7 0 0 1-.376.615 1.9 1.9 0 0 1-.436.35c-.112.06-.245.089-.34.165-.099.078-.196.075-.303.079-.075.002-.074-.035-.058-.097.033-.057.06-.11.1-.15.41-.41.85-.782 1.38-1.048"/><path fill="#0040b6" d="M3.799 7.596c-.029.054-.06.107-.085.162-.091.204-.18.408-.276.628l-.121.407c-.024.097-.043.186-.067.273l-.04-.043c.002-.017.003-.034.012-.062.009-.041.01-.072.011-.103.062-.37.186-.72.354-1.064.094-.156.187-.304.286-.456a.2.2 0 0 1 .042.062c0 .009 0 .007-.008.008a.3.3 0 0 0-.039.047s0-.002-.006.003a.2.2 0 0 0-.018.046c-.003.012-.006.024-.022.04a.1.1 0 0 0-.023.052m2.41-1.974-.23.078a.7.7 0 0 1-.142-.024 7 7 0 0 1 .554-.206.2.2 0 0 1 .046.062c-.082.03-.155.06-.228.09m.236-.092-.046-.06c.303-.07.604-.154.91-.188.284-.032.573-.013.86-.009.125.002.25.022.38.046.005.012.003.023-.006.021-.096 0-.182.001-.279.003l-.33-.02c-.333.027-.655.055-.986.085-.174.041-.338.082-.503.123"/><path fill="#0040b6" d="m8.552 5.342.002-.016c.012-.004.022-.003.046.004.032.008.052.01.08.012l.276-.027s.002 0 .002.01c.03.068.06.127.08.187-.054.04-.1.08-.147.122l-.012-.062c-.024-.043-.041-.094-.075-.108-.063-.028-.134-.034-.21-.05a.1.1 0 0 1-.043-.027z"/><path fill="#0040b6" d="M8.67 5.342a.3.3 0 0 1-.062-.01l-.031-.076a.14.14 0 0 1 .087.007c.008.034.007.057.007.08m-1.719 7.451c.132.05.256.098.377.156a.1.1 0 0 1-.047.031c-.151-.045-.295-.086-.436-.135a6 6 0 0 1-.38-.15c-.092-.064-.184-.113-.265-.177-.103-.081-.197-.174-.295-.261l.32.197q.054.031.122.06.012 0 .021.007c.015.01.022.013.03.017v.008a.5.5 0 0 0 .094.04l.003.005q.024.013.043.018l.004.005q.024.014.043.019l.003.005q.024.013.044.018l.004.006q.024.014.046.019l.015.006.032.016q.002-.001.015.007l.032.016q.082.03.175.067"/><path fill="#0040b6" d="M6.489 12.579a.2.2 0 0 1-.09-.032.2.2 0 0 1 .09.032m.046.025q-.013.003-.04-.012.015-.003.04.012m.094.048q-.015.002-.04-.013.014-.002.04.013m.049.024q-.015.002-.042-.013.014-.003.042.013m-.096-.048q-.015.003-.04-.012.015-.003.04.012m.191.093q-.006.002-.025-.01.006-.003.025.01m-.048-.022q-.005.002-.024-.01.006-.004.024.01m-.329-.166q-.007.003-.024-.011.006-.003.024.011"/><path fill="#340186" d="M16.416 5.23q.018.006.005.02c-.204.006-.4.008-.602.009-.013 0-.019.003-.032.01l-.092.007a4.3 4.3 0 0 0-1.314.303c-.091.038-.174.076-.26.114l-.018.003-.04.022h-.006l-.024.007a4.7 4.7 0 0 0-1.742 1.36c-.286.358-.529.743-.67 1.192-.024.064-.042.123-.063.19-.074.313-.144.618-.22.917-.004-.043 0-.08 0-.118q-.001-.135-.006-.271l.109-.526c.077-.207.154-.405.232-.61q.242-.51.596-.93a4.8 4.8 0 0 1 1.32-1.11c.338-.14.667-.285 1.006-.402.206-.071.426-.11.642-.142q.362-.05.728-.067c.146-.007.294.013.451.021"/><path fill="#01cdff" d="M9.961 5.911c.046.1-.011.176-.062.253l-.13.205c-.172.277-.334.543-.502.804-.03.046-.096.112-.132.104a7 7 0 0 1-.65-.181 1 1 0 0 1 .193-.087c.1-.026.221-.015.296-.07.1-.072.168-.19.241-.295.09-.13.163-.273.26-.396.1-.123.22-.229.33-.344.01-.01.01-.028.023-.04z"/><path fill="#0040b6" d="M8.484 7.105c.217.06.432.125.651.172.036.008.102-.058.132-.104.168-.261.33-.527.5-.796q.018.008.027.035.001.009-.004.01-.014.012-.015.023c-.15.263-.306.523-.445.792-.05.095-.105.112-.195.092-.204-.046-.407-.108-.614-.132-.276-.032-.556-.035-.849-.057q-.029-.023-.02-.039h.661q.086 0 .171.004m.563-1.595a3 3 0 0 1-.089-.185c.056.016.11.04.173.068.04.041.066.086.105.114.047.033.104.052.16.092.003.02.003.027-.007.031-.033-.004-.058-.007-.088-.016a8 8 0 0 0-.254-.103m.351.121.004-.028q.11.03.211.082.184.096.366.198.006.004.007.007l-.019.018a1 1 0 0 1-.145-.05 1 1 0 0 1-.1-.054l-.258-.115zM11.326 9q.012.13.013.266c0 .038-.005.075-.001.127a.1.1 0 0 1 .008.043l-.069.912-.123.576q-.003-.11-.015-.229a.5.5 0 0 1-.004-.094c0-.01.003-.009.01-.01a.1.1 0 0 0 .01-.047c0-.018.002-.036.01-.068a.3.3 0 0 0 .013-.051l.052-.846c.024-.176.046-.343.07-.51A.2.2 0 0 1 11.326 9m-8.099-.141a.2.2 0 0 1-.005.094.2.2 0 0 1-.012-.064v-.023c0-.005.012-.007.017-.007m7.831 2.113c0 .045.001.1-.02.143q-.077.163-.178.32.087-.228.198-.463"/><path fill="#0040b6" d="M11.15 10.55a.07.07 0 0 1-.004.042q-.005-.017.004-.043m.023-.119q.003.011-.006.037-.003-.011.006-.037M8.68 5.342a.2.2 0 0 1-.007-.077c.194.058.104.067.006.077"/><path fill="#340186" d="M14.94 17.215c.011-.02.02-.03.033-.054a.4.4 0 0 1 .06-.077.3.3 0 0 0 .037-.076.04.04 0 0 1 .012-.02c.008-.006.01-.01.013-.024l.012-.023q.01-.007.01-.016 0-.002.008-.006.013-.011.015-.021l.005-.004a.2.2 0 0 0 .02-.041l.009-.002a.3.3 0 0 0 .038-.077l.01-.02c.009-.006.011-.012.014-.024.004-.011.006-.015.015-.02.014-.017.021-.033.03-.047 0 0-.002 0 .004-.004a.2.2 0 0 0 .02-.048.04.04 0 0 1 .012-.02q.01-.01.011-.02l.01-.002a.7.7 0 0 0 .061-.122.04.04 0 0 1 .011-.02c.009-.007.011-.012.014-.025q.003-.014.015-.02c.014-.017.021-.032.03-.047l.007-.001q.061-.105.11-.209l.008-.001c.066-.055.123-.11.181-.155a1 1 0 0 1-.049.101q-.57 1.001-1.146 1.999c-.177.307-.36.61-.542.917-.002.001-.003.006-.003.006s.003-.009.01-.007c.019.007.03.012.042.023l-.002.019q-.079.01-.161.011.188-.359.382-.704z"/><path fill="#a00afe" d="M20.694 9.61c0 .268.003.537 0 .805 0 .113-.012.225-.011.34a2 2 0 0 1-.066.3c-.042.135-.076.26-.118.384-.112.074-.195.325-.155.453a.3.3 0 0 1-.028.08c-.057.04-.121.078-.157.134-.147.231-.281.471-.429.702-.051.08-.127.146-.195.216-.056.057-.125.105-.172.17-.076.106-.145.212-.295.218-.02 0-.04.031-.059.05-.083.088-.16.18-.247.264-.109.104-.24.188-.333.303-.097.117-.162.262-.241.394a1 1 0 0 1-.06.085l-.478.63q-.237.313-.478.624a10 10 0 0 1-.27.33q-.19.226-.388.445c-.089.095-.192.176-.281.27q-.207.22-.405.448-.256.294-.507.594c-.17.205-.342.41-.505.62-.11.144-.206.297-.317.45a4 4 0 0 1-.215.024l-.095-.018c.132-.223.257-.436.39-.645.034 0 .074.006.088-.01.12-.132.24-.263.349-.404.134-.175.258-.357.385-.537q.184-.261.362-.527c.096-.146.183-.298.282-.443.135-.198.28-.388.415-.586.113-.166.218-.338.323-.51.016-.027.015-.065.03-.1a.2.2 0 0 0 .039-.054c0-.018 0-.028.008-.04.057-.043.123-.077.151-.13.061-.114.107-.216.243-.282.103-.05.158-.197.237-.3.018-.023.047-.038.07-.059a1 1 0 0 0 .084-.088c.063-.076.119-.158.188-.228.111-.113.235-.214.344-.329.086-.09.15-.2.234-.291.188-.204.386-.4.574-.604.143-.155.278-.317.414-.478q.174-.209.344-.42c.072-.09.151-.178.208-.277a4 4 0 0 0 .23-.467c.112-.267.22-.537.315-.81.061-.178.097-.364.146-.546.014-.051.035-.1.052-.15"/><path fill="#a60efe" d="M20.507 11.438q.049-.186.11-.373-.082.361-.179.725c-.014.056-.034.11-.051.176 0 .01.002.009-.005.013a1 1 0 0 0-.04.114l-.006.004a1 1 0 0 0-.041.114s0-.002-.007.003c-.034.072-.06.14-.087.207l-.006.004a.2.2 0 0 0-.016.067h-.009a3 3 0 0 0-.11.21l-.005.004a1 1 0 0 0-.041.09l-.006.003a.1.1 0 0 0-.017.044l-.007.002a.1.1 0 0 0-.017.045q.003-.002-.007.001a.4.4 0 0 0-.04.07c.001 0 0-.002-.004.003a.2.2 0 0 0-.02.043l-.005.003a.2.2 0 0 0-.017.044l-.007.002a.1.1 0 0 0-.017.045q.003-.002-.007.001a.4.4 0 0 0-.04.07q.002-.002-.003.001a.04.04 0 0 0-.016.024c-.002.004-.004.015-.008.019a.1.1 0 0 0-.017.028q-.002.008-.009.019a.2.2 0 0 0-.017.05q.003-.002-.007.001c-.014.017-.021.03-.032.046-.007.006-.008.01-.012.02a.1.1 0 0 0-.02.03c-.01.021-.016.037-.028.058a.1.1 0 0 0-.018.032q.002-.002-.006.002a.2.2 0 0 0-.018.044l-.007.002-.04.068-.006.003c-.014.017-.021.03-.032.046q-.009.009-.014.022c-.013.02-.02.033-.032.049q-.01.009-.012.022a.1.1 0 0 0-.017.024c-.003.004-.004.013-.009.018q-.012.016-.018.03c-.002.003 0 .009-.006.013a.1.1 0 0 0-.017.032s0-.002-.006.002c-.013.018-.02.03-.03.046-.008.008-.01.014-.016.027l-.056.09c-.008.006-.01.012-.015.023l-.028.05c-.016.023-.026.042-.04.066a.1.1 0 0 0-.019.026l-.005.013c-.212.345-.427.688-.634 1.037-.624 1.049-1.245 2.1-1.874 3.161-.012.022-.016.033-.026.049-.018.028-.03.05-.049.078-.036.062-.06.124-.097.176-.06.085-.129.163-.205.243-.38 0-.75-.001-1.119-.007 0-.006 0-.017.007-.023.05-.01.092-.014.145-.018.296 0 .58.003.865-.002.046-.001.112-.028.134-.064q.32-.508.626-1.026c.302-.513.594-1.03.897-1.543.308-.522.624-1.04.943-1.564.018-.033.029-.062.047-.094.034-.048.06-.092.094-.141.174-.269.344-.531.51-.796.074-.121.14-.247.217-.375.107-.174.219-.339.305-.516.132-.268.246-.544.367-.816l.03-.09z"/><path fill="#340186" d="m16.639 18.46.017-.036c.059.057.056.23-.001.317-.073.11-.14.223-.223.325a.23.23 0 0 1-.15.079c-.167.01-.336-.003-.504.006-.09.005-.178.036-.267.055-.01.002-.025.013-.032.01-.135-.073-.268.012-.403.008-.3-.01-.6.01-.91.016a.6.6 0 0 1-.044-.2c.27-.017.532-.025.793-.035.038-.001.076-.01.125-.016.34-.004.67-.007 1-.012.084 0 .169-.009.253-.014.065-.08.134-.16.194-.244.037-.052.061-.114.106-.177a.3.3 0 0 0 .046-.082m2.789-4.665s.001-.009.008-.016q.015-.016.016-.025c0-.006.002-.011.017-.022.018-.02.024-.035.03-.05 0-.005.001-.01.016-.02a.14.14 0 0 0 .03-.047q-.002.002.007 0a.4.4 0 0 0 .04-.07l.006-.003q.014-.024.018-.044s0 .002.006-.003l.018-.031a.3.3 0 0 1 .027-.058.1.1 0 0 0 .02-.03c-.001-.005 0-.01.015-.019.018-.018.024-.032.03-.046q0 .002.008-.004a.3.3 0 0 0 .016-.05s0-.01.007-.017q.017-.018.017-.028s.002-.01.008-.018a.1.1 0 0 0 .016-.024q-.002.002.008 0c.018-.024.027-.047.037-.07l.007-.003c.01-.017.013-.03.017-.044q-.001.002.007-.003.012-.024.017-.044l.006-.002q.014-.026.018-.045-.002.002.008 0a.4.4 0 0 0 .038-.07l.006-.003a.2.2 0 0 0 .018-.044l.006-.003q.012-.024.017-.044s0 .002.007-.002a1 1 0 0 0 .04-.092q-.002.002.007 0 .061-.105.11-.21l.007-.004q.013-.037.017-.067s0 .002.006-.002c.034-.072.06-.14.087-.209q-.002.002.008-.002a1 1 0 0 0 .04-.115q-.002.002.007-.002a1 1 0 0 0 .039-.115h-.003c.095-.034.103.045.105.097 0 .046-.032.093-.053.138-.024.052-.055.101-.077.154-.07.166-.134.335-.205.5-.02.044-.066.076-.087.12-.06.124-.099.26-.17.375-.078.124-.183.232-.276.346-.034.042-.073.08-.102.124-.036.054-.063.115-.097.172-.036.061-.068.128-.116.18-.03.03-.086.035-.135.044q-.008-.012.004-.023.017-.018.017-.027a.3.3 0 0 1 .044-.066.2.2 0 0 0 .026-.051c0-.006.002-.012.02-.02a.4.4 0 0 0 .052-.094c0-.007.002-.013.017-.024a.2.2 0 0 0 .029-.047l.006-.003.017-.031s-.002-.006.005-.012zm1.375-4.537c.007.012.007.022.007.04a1 1 0 0 1-.043.096l-.033-.167.07.031m-.081-.133q.008-.005.015-.002l-.005.02zm-.013-.143q-.002 0 0 0m-.027-.088"/><path fill="#340186" d="M15.03 18.989c-.039.005-.077.015-.115.016l-.794.027a.1.1 0 0 1-.03-.004q-.01-.006.004-.021a.6.6 0 0 1 .137-.029c.208.004.405.004.612.005z"/><path fill="#01cdff" d="M5.906 12.258c.098.087.192.18.295.26.081.065.173.114.263.186-.046.041-.096.064-.142.094-.04.024-.104.056-.104.085 0 .145-.121.176-.206.243q-.044.038-.082.083c-.032.037-.057.084-.095.112s-.089.037-.156.063c.128.102.235.194.35.275.119.086.246.16.37.248 0 .027 0 .044-.002.07a1 1 0 0 1-.098.083c-.125.086-.244-.006-.363-.022-.093-.012-.175-.092-.268-.118-.235-.066-.45-.158-.63-.33-.056-.052-.154-.06-.233-.09-.074-.06-.147-.12-.228-.184q-.324-.406-.635-.81a1.4 1.4 0 0 1-.134-.232c-.022-.045-.015-.088.052-.083.118.007.236.009.352.026.058.009.112.046.167.072.013.007.029.03.036.027.158-.063.27.1.419.085.033-.004.088.012.101.036.056.1.143.104.24.104q.188 0 .373.017c.075.007.098-.023.101-.09.003-.065.013-.13.02-.194l.037-.02.049.113.042-.018c.006-.034.011-.068.023-.11.006-.008.016-.004.019.001.007.01.013.015.028.019z"/><path fill="#00e5ff" d="M3.385 11.18a18 18 0 0 1-.15-.7.6.6 0 0 1-.013-.135c.1-.09.201-.059.305-.037.12.026.245.051.361-.02.045-.026.084-.082.128-.086.218-.017.335-.194.474-.315.152-.131.249-.326.37-.492.008-.01.026-.014.04-.01-.003.045-.006.08-.007.115-.007.286-.021.572-.015.857.004.158.043.314.067.471-.06.017-.124.024-.175.054-.04.022-.065.071-.093.11-.012.017-.016.04-.023.058l-.038-.028c-.08.049-.155.092-.228.138-.021.014-.039.035-.057.054-.015.016-.032.052-.042.05-.12-.026-.224.093-.35.032-.047-.021-.114.007-.168-.005-.098-.022-.193-.058-.29-.087a1 1 0 0 0-.096-.024"/><path fill="#0040b6" d="M4.948 10.836c-.027-.165-.066-.321-.07-.479-.006-.285.008-.571.015-.857 0-.035.004-.07.01-.122.022-.069.04-.12.055-.17.1-.362.28-.683.51-.985.235-.287.52-.504.824-.7.045-.028.087-.061.138-.094.057-.025.103-.055.154-.071q.385-.118.785-.234l.272-.022.02.038c-1.042.124-1.86.601-2.409 1.524a2.3 2.3 0 0 0-.3.82c-.093.49-.037.971.106 1.454.036.093.07.178.11.266.073.14.136.279.206.414.04.077.089.15.134.233-.195-.177-.31-.413-.418-.652-.052-.116-.092-.237-.142-.363m.888 1.399-.016-.006a7 7 0 0 1-.216-.246c.016-.004.041-.008.052.003q.123.125.248.265c-.008.008-.018.008-.04.003a.1.1 0 0 0-.028-.019m-.327-.368q.03.006.06.035c-.007.015-.012.02-.015.028zm.069.069q.012.006.024.034-.012-.006-.024-.034"/><path fill="#0040b6" d="M5.56 11.93q-.004-.01.013-.02.006 0 .006.014-.006.009-.019.007m5.338 2.064c.254-.213.517-.41.766-.625.125-.108.223-.247.343-.383.168-.267.325-.523.486-.786a5.4 5.4 0 0 0 .476-2.05l.035-.23.001.429.167-.225v.247a27 27 0 0 1-.084.698c-.113.546-.259 1.074-.527 1.56-.11.2-.238.39-.364.592-.188.2-.357.412-.557.588a4.9 4.9 0 0 1-2.228 1.116c-.351.077-.711.116-1.077.17a8 8 0 0 0-.253.018c-.06-.005-.122-.016-.183-.014-.518.015-1.02-.079-1.521-.23.047-.005.108-.022.155-.004.268.101.547.085.824.1.169.008.335.048.504.07q.098.014.197.01.155-.007.308-.023c.21-.023.422-.042.63-.075.193-.031.387-.067.574-.123.16-.048.315-.12.465-.197.211-.106.417-.224.623-.341.076-.043.152-.091.214-.151.028-.027.021-.088.026-.141"/><path fill="#89f1fe" d="M7.828 15.492c-.049.083-.098.166-.158.256a.2.2 0 0 0-.03.027s.001-.002-.007 0c-.018.027-.028.053-.038.078q.002.007-.017.015a.1.1 0 0 0-.03.024l-.006-.001h-.03c-.216.026-.42.041-.611.152-.235.136-.489.237-.73.362-.115.06-.222.137-.33.21-.227.154-.482.273-.635.52-.021.034-.076.05-.117.07-.074.038-.107.003-.12-.07-.02-.126-.046-.251-.064-.378a.16.16 0 0 1 .018-.098q.084-.14.184-.268c.084-.102.15-.227.317-.227.041 0 .11-.06.12-.104.02-.088.066-.099.14-.102.051-.002.101-.028.16-.044.018 0 .029 0 .045.006.048.003.09 0 .143-.004.105-.024.2-.047.305-.07.43-.036.836-.125 1.234-.26q.118-.047.248-.094z"/><path fill="#89f1fe" d="M5.836 15.915c-.05.015-.1.041-.151.043-.075.003-.121.014-.142.102-.01.043-.078.105-.119.104-.167 0-.233.125-.317.227a3 3 0 0 0-.184.268.16.16 0 0 0-.018.098c.018.127.043.252.065.379.012.072.045.107.119.07.04-.022.096-.037.117-.071.153-.247.408-.366.636-.52.107-.073.214-.15.329-.21.241-.125.495-.226.73-.362.19-.11.395-.126.615-.147l.03.02a.2.2 0 0 1-.041.046c-.018.015-.023.024-.028.032 0 .005-.002.01-.018.014-.06.029-.104.075-.152.08-.166.02-.291.117-.43.194-.345.193-.698.372-1.044.562-.112.061-.214.14-.318.213q-.188.134-.375.272-.088.066-.166-.017c-.002-.002-.009-.011-.008-.02-.053-.349-.108-.687-.162-1.036 0-.115-.002-.219-.003-.321h.012l.844.001c.027-.007.045-.014.073-.021l.089-.001z"/><path fill="#89f1fe" d="M4.976 17.315q.075.079.164.014.186-.138.375-.272c.104-.073.206-.152.318-.213.346-.19.7-.37 1.044-.562.139-.077.264-.175.43-.194.048-.005.093-.051.148-.079q-.186.202-.404.415a1 1 0 0 0-.066.075h-.01q-.037.016-.057.032c-.27.264-.593.455-.916.643q-.292.168-.598.333a5 5 0 0 0-.233.156c-.037.026-.072.053-.11.071l-.046-.163q-.002-.01 0-.027l-.04-.23"/><path fill="#5cc1e8" d="M7.568 15.577a4.4 4.4 0 0 1-1.225.262c.052-.023.108-.04.175-.06-.057-.043-.096-.075-.138-.103-.153-.105-.26-.285-.475-.304-.025-.013-.046-.018-.07-.029a10 10 0 0 1-.347-.332v-.106l.037-.119c.079.042.161.072.228.123q.486.364 1.07.513c.216.056.44.078.66.117a.2.2 0 0 1 .085.038m-2.156 1.93q.296-.164.59-.333c.323-.188.645-.379.916-.643.013-.013.032-.02.057-.03-.057.086-.112.185-.19.258-.111.106-.242.192-.361.29-.21.175-.414.354-.623.528-.285.238-.566.477-.748.81-.027.049-.076.085-.122.119.072-.175.16-.338.16-.533 0-.1.042-.19.128-.26.072-.06.13-.137.193-.206m-.634-3.162a2 2 0 0 0 .005-.235s.006-.001.008-.004a.1.1 0 0 1 .03-.017c.014.181.148.266.276.354.117.08.24.155.352.241.026.02.024.076.024.125-.02.069-.03.127-.046.18-.014-.11-.041-.19-.17-.198-.048-.003-.095-.046-.139-.076a8 8 0 0 1-.291-.212c-.01-.011-.016-.017-.023-.031z"/><path fill="#89f1fe" d="M5.433 14.994c.01-.058.02-.116.039-.175.01.023.011.046.014.077.002.04.002.073 0 .125-.004.256.066.33.295.33l.057-.003a.2.2 0 0 1 .059.024.3.3 0 0 1-.07.027l-.046.004-.021-.002c-.212 0-.3.083-.28.264a2 2 0 0 1-.025.178c-.006 0-.017 0-.017-.01l-.028-.229c-.065-.185-.212-.208-.367-.212.026-.017.046-.035.068-.036a.31.31 0 0 0 .282-.21q.008.02.016.024c.002.002.01.001.01 0z"/><path fill="#5cc1e8" d="M5.404 17.507c-.056.07-.113.146-.185.205a.33.33 0 0 0-.128.26c0 .196-.088.359-.168.535a.3.3 0 0 1-.05.055c-.013.011-.017.016-.017.023-.03.021-.058.042-.1.067-.025.004-.035.003-.045-.005.047-.065.094-.12.147-.18a.84.84 0 0 0 .202-.53l.002-.194.11-.08a5 5 0 0 1 .232-.156"/><path fill="#89f1fe" d="M4.69 18.706a1 1 0 0 0-.071.059c-.002.007-.002.008-.012.006-.255.086-.5.131-.739-.022l.002-.008c-.003-.03-.008-.052-.011-.077.003-.003.009-.008.016-.005l.084.045.003.01c.01.021.017.04.028.044a.82.82 0 0 0 .636-.054l.061-.001z"/><path fill="#0040b6" d="M6.993 16.499a.2.2 0 0 1 .053-.068.2.2 0 0 1-.053.068"/><path fill="#5cc1e8" d="M4.711 18.655h.038a.2.2 0 0 1-.052.049q-.01.003-.009-.008a.2.2 0 0 1 .023-.041"/><path fill="#0040b6" d="M7.6 15.848a.2.2 0 0 1 .034-.072.2.2 0 0 1-.033.072"/><path fill="#89f1fe" d="M7.851 15.445a.2.2 0 0 1-.018.043l-.005.005q.006-.018.018-.043z"/><path fill="#0040b6" d="M4.86 18.583q-.005-.008.01-.015.005.007-.01.015m2.688-2.673q-.013.003-.022-.014 0-.006.016-.005.01.006.006.019m.006-.02q0-.008.021-.02 0 .008-.02.02m.092-.117q0-.007.017-.02 0 .006-.017.02m-.164.217q-.001-.007.016-.025.002.007-.016.025"/><path fill="#89f1fe" d="m7.852 15.446.005-.009s-.001.006-.004.007q-.002.001-.001.002"/><path fill="#0040b6" d="M10.708 14.108a1 1 0 0 1 .134-.094c.011.096-.067.08-.134.094m.147-.095q0-.006.014-.019.004.009-.014.019"/><path fill="#08b6fe" d="M4.809 13.507c.075.022.173.03.229.084.18.17.395.263.63.33.093.025.175.105.268.117.119.016.238.108.363.022.034-.023.065-.05.107-.082.126.042.244.092.361.14.088.037.173.09.265.105q.307.053.618.071c.159.01.325.02.477-.016.336-.081.674-.16.987-.323.186-.096.391-.155.586-.234.026-.01.044-.04.065-.063.023-.026.039-.065.067-.078.226-.106.346-.318.46-.511.142-.243.266-.507.297-.797.004-.04-.016-.082-.028-.122q-.017-.053-.04-.107c.104-.137.208-.274.326-.41.07.176.195.304.313.438q.11.128.215.26c.008.011.002.037-.003.054a1.4 1.4 0 0 1-.062.2l-.226.002c-.093 0-.173.009-.164.136a.8.8 0 0 1-.012.228c-.025.112-.085.218-.098.33-.022.195-.166.322-.293.4-.144.087-.234.23-.388.3-.204.09-.397.204-.6.296-.107.05-.225.075-.338.111-.202.064-.406.125-.607.192-.06.02-.15-.008-.17.09-.353-.007-.71.007-1.061-.029a5 5 0 0 1-.829-.184c-.615-.173-1.157-.489-1.655-.884-.021-.017-.038-.039-.06-.066"/><path fill="#2b83ff" d="M12.49 12.208c-.158.256-.315.512-.479.772a.14.14 0 0 1-.07-.006.3.3 0 0 1 .045-.083c.115-.155.113-.163-.023-.311a.3.3 0 0 1-.053-.101c-.088-.276-.223-.518-.473-.68-.233-.151-.338-.37-.353-.641l.07-.226c.04-.197.081-.385.131-.584q.066.017.114.056c.152.12.3.245.454.363.125.095.256.183.384.274.104.074.2.165.313.22.192.094.197.084.133.292q-.008.028-.018.055-.11.301-.223.604c-.002.001-.002.009-.002.009s.006-.009.013-.01z"/><path fill="#02abfe" d="M8.425 14.67c.009-.098.098-.07.159-.09.201-.067.405-.128.607-.192.113-.036.231-.062.339-.11.202-.093.395-.207.599-.298.154-.068.244-.212.388-.3.127-.077.27-.204.293-.399.013-.112.073-.218.098-.33a.8.8 0 0 0 .012-.228c-.009-.127.071-.136.164-.136.072 0 .144 0 .228.007.057.13.118.248.145.374.047.215-.1.368-.214.518-.076.1-.2.161-.294.25-.064.06-.112.138-.168.209-.481.262-.98.48-1.518.593-.273.057-.551.09-.838.133"/><path fill="#069dfe" d="M10.788 13.941c.049-.067.097-.144.161-.206.094-.088.218-.15.294-.249.115-.15.261-.303.214-.518-.027-.126-.088-.244-.136-.374.017-.075.035-.141.051-.209.005-.017.011-.043.003-.053a7 7 0 0 0-.215-.26c-.118-.135-.243-.263-.307-.444a.15.15 0 0 1 .027-.07c.013-.014.016-.02.017-.027q.087-.18.182-.368c.02.265.125.485.358.636.25.162.385.404.473.68a.3.3 0 0 0 .053.101c.136.148.138.156.023.31a1 1 0 0 0-.055.084 5 5 0 0 1-.216.237 4.1 4.1 0 0 1-.927.73"/><path fill="#01eeff" d="M5.46 8.227a3 3 0 0 0-.502.98c-.014.052-.033.102-.054.16-.018.014-.036.018-.044.028-.121.166-.218.36-.37.492-.139.12-.256.298-.474.315-.044.004-.083.06-.128.087-.116.07-.24.045-.36.02-.105-.023-.205-.054-.307.027-.012-.02-.016-.04-.026-.076a1 1 0 0 1-.001-.185c.006-.01.004-.016-.005-.031q.007-.239.025-.454c.02.055.032.104.056.199.049-.134.093-.167.164-.07.018.025.08.035.117.026.091-.024.208.007.261-.112.006-.011.038-.023.051-.018.092.04.148-.02.205-.071.054-.049.102-.104.153-.156l.33-.338c.012-.012.01-.036.02-.053l.081-.138c.036-.062.07-.125.114-.188.107-.052.213-.092.301-.157.103-.075.188-.174.286-.257.026-.022.072-.021.108-.03"/><path fill="#0040b6" d="M3.19 10.078v.177c-.016-.09-.049-.192-.045-.293.01-.309.034-.617.059-.932.018.006.03.02.047.046-.01.178-.027.343-.043.508l-.02.466zm6.59-3.636q-.005-.007.01-.019.005.007-.01.019m-4.757 4.11q.009 0 .013.017-.008 0-.013-.017"/><path fill="#89f1fe" d="m3.751 16.993.002-.072c0-.043.002-.068.006-.096.005-.009.004-.015-.005-.028a.3.3 0 0 1 .007-.071c.007-.093.006-.179.014-.263.006-.07.029-.132.123-.111.114.026.229.051.344.088l.001.657c0 .082 0 .153-.008.227-.108.102-.214.183-.372.142-.014-.004-.062.051-.063.08-.006.16-.003.319-.01.47-.01-.242-.013-.478-.018-.714-.002-.103-.01-.207-.015-.31z"/><path fill="#89f1fe" d="m4.241 16.428-.343-.076c-.094-.021-.117.04-.123.11-.008.085-.007.17-.016.253q-.01-.192-.012-.38l.004-.186v-.166c.06-.065.113-.102.22-.079.108.024.23-.008.36-.013.02.005.025.007.028.017a.97.97 0 0 0-.118.52m1.15-1.288c-.05.128-.138.205-.28.216-.022.001-.042.019-.077.036-.096-.008-.146.027-.173.103a.2.2 0 0 1-.053.08l-.012-.13a81 81 0 0 0-.013-.817l-.005-.026a1 1 0 0 1 .01-.107.03.03 0 0 1 .016-.014.1.1 0 0 1 .022.032c-.01.104.019.164.096.22.086.063.17.133.18.265.009.128.126.16.223.073.017-.016.027-.04.04-.06l.026.006z"/><path fill="#5cc1e8" d="M4.804 14.472c0 .009-.01.012-.015.013a.5.5 0 0 1-.016-.133.6.6 0 0 1 .03.12"/><path fill="#89f1fe" d="M3.755 17.002c.007.093.015.197.017.3.005.236.008.472.018.725.03.199.054.379.077.568v.06s-.005.006-.014.006l-.036-.004-.063-.226c-.002-.479-.001-.948.001-1.429m.322 1.898-.177-.08a.2.2 0 0 1-.033-.063c.24.146.485.1.74.015-.143.143-.337.122-.53.13"/><path fill="#89f1fe" d="M3.817 18.665q.012-.009.033 0a.2.2 0 0 1 .02.076.3.3 0 0 1-.053-.076"/><path fill="#ab12fe" d="M19.43 6.773q.16.154.317.313c.051.053.093.114.145.176.083.14.164.271.235.409q.103.205.184.43c-.076.065-.091.32-.022.375.068.054.06.11.04.176l-.032.112-.057.177c-.019.092.004.194-.009.291-.02.163-.108.316-.062.49.005.017-.027.043-.038.067-.029.063-.095.145-.076.188.06.134.017.25-.019.37-.054.182-.1.368-.174.542-.09.211-.233.402-.303.618-.1.304-.294.533-.5.757q-.348.377-.714.735c-.18.174-.376.332-.563.499l-.331.305a7 7 0 0 1-.325.279c-.106-.125-.143-.12-.205.016-.012.026-.052.052-.082.055-.06.008-.12-.005-.144.081-.006.022-.106.043-.14.024-.063-.036-.11-.102-.165-.156l-.027-.03-.066.023c-.068-.06-.118-.104-.166-.15a.1.1 0 0 1-.024-.053.35.35 0 0 1 .375-.12c.01.003.022-.005.033-.01.246-.124.497-.239.735-.376.177-.1.328-.245.505-.344.374-.212.683-.502.983-.801.152-.153.31-.318.404-.508.124-.254.306-.488.337-.784.02-.18.056-.36.06-.54.002-.134-.052-.268-.054-.402-.005-.26-.14-.466-.273-.666-.087-.13-.227-.226-.34-.34-.03-.031-.072-.076-.07-.112.008-.155-.118-.22-.2-.31-.024-.027-.09-.016-.142-.027a1 1 0 0 1-.065-.098c-.052-.08-.094-.16-.153-.223-.045-.05-.112-.082-.176-.125q-.056-.058-.101-.108c-.261-.276-.589-.453-.924-.624a.2.2 0 0 1 .09-.014q.083.017.167.054.09.066.176.119l.019-.035q-.096-.043-.2-.099a2.75 2.75 0 0 0-1.238-.331l-.017-.155c.216.035.408.024.55-.148-.027-.045-.043-.086-.072-.114-.05-.05-.088-.126-.189-.085-.147.061-.171.044-.215-.12.213-.012.415-.037.616-.029.142.006.282.057.423.091.015.004.021.035.037.042.076.036.151.08.232.098.11.025.227.023.339.045q.287.057.571.13c.056.014.107.05.159.079.033.018.061.048.096.057.083.02.168.032.256.047l-.03.09.254-.018-.107-.06.027-.037c.032.014.073.02.093.045.034.04.049.108.12.057.047-.034.13-.087.123-.112-.03-.112.077-.132.109-.198m-2.445.01-.02.05h.054a.1.1 0 0 0-.034-.05m.714.894-.019-.05-.02.008c.009.014.017.029.039.042m.103.053h-.025v.01c.008 0 .017 0 .025-.01"/><path fill="#a60efe" d="M17.133 14.086q.16-.14.318-.283c.11-.1.219-.205.331-.305.187-.167.384-.325.563-.5q.367-.357.713-.734c.207-.224.401-.453.5-.757.071-.216.214-.407.304-.618.074-.174.12-.36.174-.542.036-.12.079-.236.019-.37-.02-.043.047-.125.076-.188.011-.024.043-.05.038-.068-.046-.173.041-.326.062-.489.013-.097-.01-.199.01-.291l.056-.177.032-.112c.02-.066.028-.122-.04-.176-.07-.054-.054-.31.022-.366.228.469.331.968.384 1.49-.018.06-.04.109-.053.16-.05.182-.085.368-.146.546-.095.273-.203.543-.315.81a4 4 0 0 1-.23.467c-.057.1-.136.186-.208.276q-.169.213-.344.421c-.136.161-.271.323-.414.478-.188.204-.386.4-.574.604-.084.091-.148.2-.234.291-.109.115-.233.216-.344.329-.069.07-.125.152-.188.228a1 1 0 0 1-.085.088c-.022.021-.05.036-.069.06-.079.102-.134.249-.237.3-.136.065-.182.167-.243.28-.028.054-.094.088-.151.121a2.4 2.4 0 0 1 .071-.367c.023-.077.08-.143.103-.22.04-.126.067-.257.099-.386"/><path fill="#b118fe" d="M19.429 6.765c-.031.074-.138.094-.108.206.007.025-.076.078-.123.112-.071.051-.086-.017-.12-.057-.02-.024-.061-.03-.093-.045l-.027.036.107.06-.253.02.029-.09c-.088-.016-.173-.027-.256-.048-.035-.009-.063-.04-.096-.057-.052-.028-.103-.065-.159-.08q-.285-.072-.571-.129c-.112-.022-.229-.02-.34-.045-.08-.019-.155-.062-.23-.098-.017-.007-.023-.038-.038-.042-.14-.034-.281-.085-.423-.09-.2-.009-.403.016-.624.028-.159.116-.33.12-.497.143-.079.01-.156.066-.232.061a.65.65 0 0 0-.372.066c-.108.058-.242.066-.36.109-.095.035-.184.09-.276.127.004-.032 0-.06.012-.077q.138-.202.279-.403.01-.013.025-.025c.1-.105.204-.206.298-.317.162-.19.315-.388.477-.578.048-.057.117-.095.169-.149.033-.035.052-.084.077-.126q.034-.005.085-.003a.06.06 0 0 0 .036-.014c.196-.002.392-.004.598-.003.171.037.333.071.494.108.485.112.956.26 1.387.517.08.047.163.09.252.139.124.085.25.156.357.25.178.154.344.323.516.494"/><path fill="#10c4fe" d="M6.398 13.898c-.123-.079-.25-.153-.37-.239-.114-.081-.22-.173-.349-.275.067-.026.118-.035.156-.063s.063-.075.095-.112q.038-.047.082-.083c.085-.067.206-.098.206-.243 0-.029.065-.061.104-.085.046-.03.096-.053.146-.087.127.04.251.091.378.135.141.049.285.09.445.136l.227.033c.02.005.04.01.079.017.388.05.756.03 1.122-.033.135-.023.267-.07.4-.108h.006c.028-.007.047-.015.066-.023h.022a.2.2 0 0 0 .046-.024h.007l.037-.002c.38-.134.721-.33 1.025-.598q-.123.255-.261.502c-.022.038-.076.06-.092.1-.06.153-.184.248-.307.341-.07.052-.163.073-.232.127-.118.092-.227.192-.38.232-.063.016-.119.063-.178.096a.5.5 0 0 0-.15.018c-.057.014-.112.034-.167.05-.106.033-.214.06-.318.099-.178.065-.356.102-.546.05a1.3 1.3 0 0 0-.558-.049c-.024.004-.05-.005-.075-.009-.074-.013-.152-.048-.22-.034-.151.03-.297.086-.446.131"/><path fill="#10c4fe" d="M6.398 13.907c.149-.054.295-.11.446-.14.068-.014.146.021.22.034.025.004.051.013.075.01.19-.033.376 0 .558.049.19.05.368.014.546-.051.104-.038.212-.066.318-.098.055-.017.11-.037.166-.051q.075-.021.15-.018c.06-.033.116-.08.18-.096.152-.04.261-.14.38-.232.068-.054.161-.075.23-.127.124-.093.247-.188.308-.341.016-.04.07-.062.092-.1q.137-.245.267-.507c.058-.069.116-.128.18-.192q.03.048.047.103c.012.04.032.082.028.122-.031.29-.155.554-.298.797-.113.193-.233.405-.459.51-.028.014-.044.053-.067.079-.02.022-.039.052-.065.063-.195.08-.4.138-.586.234-.313.162-.651.242-.987.323-.152.036-.318.025-.477.016a6 6 0 0 1-.618-.07c-.092-.016-.177-.069-.265-.105q-.174-.074-.36-.15a.14.14 0 0 1-.009-.062"/><path fill="#0040b6" d="M9.109 12.891c-.123.037-.255.085-.39.108a3.7 3.7 0 0 1-1.114.032c.074-.007.157-.016.24-.019.205-.006.41.002.613-.018.215-.021.427-.068.65-.103m-1.586.118c-.073-.005-.143-.015-.221-.026q.003-.013.031-.025h.064q.073.021.126.051m1.661-.141a.2.2 0 0 1-.058.024.2.2 0 0 1 .058-.024m.069-.023q-.006.01-.034.022.007-.012.034-.022m.048-.008q-.01.008-.034.008a.06.06 0 0 1 .034-.008m1.593-1.303q.005.006-.01.017-.005-.007.01-.017"/><path fill="#12fdfe" d="M6.437 5.532c.173-.042.337-.083.512-.115a.34.34 0 0 1-.082.117c-.224.2-.302.492-.424.747-.092.191-.236.327-.349.492-.11.163-.277.287-.416.43q-.271.276-.535.56c-.031.034-.039.09-.066.136-.115.083-.238.151-.322.253-.104.125-.253.221-.29.396-.002.01-.017.017-.025.024-.155.126-.313.25-.465.38-.161.137-.429.137-.577-.015-.038-.038-.051-.1-.076-.151q.054-.191.115-.391c.14.104.402.096.527-.018.104-.095.218-.18.317-.28.093-.093.173-.2.258-.3.013-.015.02-.036.034-.047.248-.188.5-.37.742-.566.136-.11.251-.247.377-.37.099-.096.202-.187.298-.286a.6.6 0 0 0 .108-.15c.09-.2.18-.401.26-.606.032-.083-.03-.136-.145-.144.069-.036.142-.065.224-.096"/><path fill="#0040b6" d="M3.875 7.454a.1.1 0 0 1 .033-.047.1.1 0 0 1-.033.047m-.07.138a.06.06 0 0 1 .011-.044q.004.018-.011.044M3.85 7.5q-.003-.015.013-.042.002.014-.013.041"/><path fill="#09f6fe" d="M3.317 8.793c.03.044.043.106.081.144.148.152.416.152.577.015.152-.13.31-.254.465-.38.008-.007.023-.014.024-.024.038-.175.187-.271.29-.396.085-.102.208-.17.323-.245-.013.034-.037.056-.054.084-.018.03-.039.066-.039.099.001.097-.027.173-.11.234-.05.037-.082.096-.124.147l.07.06-.062.14-.106.188-.08.138c-.01.017-.01.04-.021.053l-.33.338c-.05.052-.099.107-.153.156-.057.05-.113.112-.205.071-.013-.005-.045.007-.05.018-.054.12-.171.088-.262.112-.036.009-.099 0-.117-.026-.071-.097-.115-.064-.164.07a3 3 0 0 0-.056-.2c.01-.17.027-.335.042-.51.018-.1.037-.19.06-.286"/><path fill="#03faff" d="M4.766 8.67c.011-.042.03-.085.053-.138l-.07-.061c.043-.051.076-.11.126-.147.082-.06.11-.137.11-.234 0-.033.02-.069.038-.099.017-.028.041-.05.063-.084.018-.054.026-.11.057-.144q.264-.284.535-.56c.14-.143.306-.267.416-.43.113-.165.257-.3.349-.492.122-.255.2-.546.424-.747a.6.6 0 0 0 .092-.118q.479-.057.972-.085c-.026.018-.063.024-.096.038-.026.01-.056.026-.068.049-.007.011.016.048.034.063.219.182.44.362.654.548-.22.06-.432.114-.645.17a.4.4 0 0 0-.117.045c-.104.071-.204.149-.306.223-.17.124-.348.24-.511.374-.118.097-.202.24-.328.322-.113.073-.138.153-.126.267q-.064.05-.13.094c-.304.195-.589.412-.824.699-.043.013-.089.012-.115.034-.098.083-.183.182-.286.257-.088.065-.194.105-.3.157"/><path fill="#12fdfe" d="M8.46 6.023q-.33-.27-.659-.542c-.018-.015-.04-.052-.034-.063.012-.023.042-.039.068-.049.033-.014.07-.02.107-.037.106-.002.209.004.329.012.028.009.039.015.045.028-.095.044-.074.095-.02.145.1.092.203.182.304.281-.016.081-.03.153-.055.225z"/><path fill="#0040b6" d="m8.321 5.366-.04-.022q.119-.004.262-.004c.009.014.009.026-.001.046-.08-.002-.15-.01-.22-.02"/><path fill="#03faff" d="M8.316 5.372c.075.003.146.012.225.023a.14.14 0 0 1 .05.026c.024.102.176.185.287.16l.013.053a3 3 0 0 1 .147-.122c.092.031.174.064.257.11-.117-.012-.207.17-.334.05l-.022.093c-.025-.025-.04-.043-.06-.062-.057.154-.057.153-.21.098-.02-.007-.045-.008-.067-.012q-.155-.134-.306-.272c-.054-.05-.075-.101.02-.145"/><path fill="#12fdfe" d="M8.879 5.572c-.112.034-.264-.049-.28-.15.07.008.142.014.205.042.034.014.051.065.075.108"/><path fill="#7650ff" d="M13.002 9.91q-.014.116-.035.233a.1.1 0 0 1-.026-.02c-.037.083-.1.053-.162.04-.107-.022-.198-.063-.259-.16-.047-.076-.103-.146-.153-.22-.124-.18-.302-.255-.506-.21-.207.044-.352-.068-.514-.147l-.003-.027c.07-.314.14-.619.224-.931.1.015.2.02.274.065.168.106.168.114.33.008.035-.023.07-.053.11-.064.038-.011.11-.018.12-.001.061.123.197.212.17.38-.009.051.024.114.05.166.022.043.061.08.095.117.081.091.164.182.268.295l.138-.389.021.007.005.102z"/><path fill="#b118fe" d="M11.627 8.272c.135-.444.378-.829.664-1.187a4.64 4.64 0 0 1 1.745-1.357c.019.003.024 0 .026-.01h.007q.026-.012.04-.023l.02-.001c.045-.002.077-.005.134-.01l-.092.102c-.11.124-.216.252-.33.373-.259.27-.514.546-.784.805-.211.202-.283.466-.384.727-.23.171-.408.402-.686.493-.117.038-.24.059-.36.088"/><path fill="#9739fe" d="M11.621 8.277c.127-.034.25-.055.366-.093.278-.09.456-.322.696-.493.061-.002.105 0 .157.003-.023.085-.044.152-.059.22-.033.152.009.194.16.167a1 1 0 0 1 .143-.014c.029.002.058.004.076-.008.09-.06.173-.13.264-.187.084-.052.175-.092.263-.129l-.052.36a.6.6 0 0 1 .122.044 3.3 3.3 0 0 0-.607.998l-.006-.093-.02-.007-.14.39-.267-.296c-.034-.038-.073-.074-.095-.117-.026-.052-.059-.115-.05-.166.027-.168-.109-.257-.17-.38-.01-.017-.082-.01-.12 0-.04.012-.075.042-.11.065-.162.106-.162.098-.33-.008-.073-.046-.174-.05-.271-.074a1 1 0 0 1 .05-.182"/><path fill="#b118fe" d="M13.687 7.734c-.088.046-.179.086-.263.138-.091.057-.174.127-.264.187-.018.012-.047.01-.073 0q.08-.17.167-.32c.17-.29.45-.513.536-.857.004-.017.022-.031.034-.046.131-.156.27-.306.39-.47.138-.186.259-.385.388-.578q.098-.145.2-.287c-.095.001-.178.03-.262.053-.049.013-.1.016-.15.023.343-.148.705-.223 1.073-.277.074-.01.148-.017.232-.024a.4.4 0 0 1-.068.127c-.052.054-.121.092-.17.149-.161.19-.314.388-.476.578-.094.11-.199.212-.298.317q-.015.012-.025.025-.141.2-.279.403c-.011.017-.008.045-.015.084a7 7 0 0 1-.304.367q-.186.205-.373.408"/><path fill="#b118fe" d="M14.38 5.578c.06-.008.111-.01.16-.024.084-.022.167-.052.262-.053q-.102.142-.2.287c-.13.193-.25.392-.387.578-.12.164-.26.314-.39.47-.013.015-.031.029-.035.046-.086.344-.366.567-.536.857-.06.101-.113.205-.172.314-.05.014-.096.02-.141.028-.151.027-.193-.015-.16-.167.015-.068.036-.135.06-.22l-.15-.007c.083-.257.155-.521.366-.723.27-.259.525-.534.783-.805.115-.12.22-.249.33-.373l.093-.102c-.057.005-.089.008-.13.01q.111-.058.248-.116"/><path fill="#340186" d="M14.103 5.696a.1.1 0 0 1-.034.022q.006-.01.034-.022m1.717-.437q-.005.011-.021.015.001-.017.02-.015m-1.762.46q.004.013-.013.007c-.003-.003.008-.007.013-.007"/><path fill="#00d7ff" d="M7.652 7.101c-.098.008-.186.016-.281.015q.322-.168.658-.318c.086-.039.178-.064.277-.095.132-.03.254-.082.377-.086.155-.004.266-.029.367-.172.106-.151.265-.266.404-.394q.135-.122.274-.24l.086.046q.004.03-.008.047c-.11.115-.231.22-.33.344-.098.123-.17.267-.26.396-.074.105-.142.223-.242.295-.075.055-.197.044-.296.07a1 1 0 0 0-.193.087c-.058.007-.115.005-.172.005z"/><path fill="#09f6fe" d="M8.6 5.798a.13.13 0 0 1 .07.003c.152.055.152.056.21-.098l.059.062.022-.092c.127.12.217-.063.34-.046a.3.3 0 0 1 .088.003c.03.02.05.037.074.068a3 3 0 0 1-.295.341c-.026.026-.1.028-.137.01-.08-.041-.094-.003-.101.062l-.022.14-.038.02c-.007-.153-.086-.097-.155-.09q-.083-.084-.16-.158c.015-.072.03-.144.045-.225"/><path fill="#00e5ff" d="M8.719 6.188c.065-.014.144-.07.151.083l.038-.02.022-.14c.007-.065.02-.103.101-.062.037.018.11.016.137-.01.106-.102.2-.217.3-.335.084.026.166.06.255.101-.086.086-.18.164-.27.246-.138.128-.297.243-.403.394-.1.143-.212.168-.367.172-.123.004-.245.056-.376.078.05-.053.121-.09.165-.146.09-.114.165-.24.247-.361"/><path fill="#5465ff" d="M11.346 9.436c.163.069.308.181.515.136.204-.044.382.032.506.211.05.074.106.144.153.22.061.097.152.138.259.16.062.013.125.043.162-.04a.1.1 0 0 1 .022.03 5.3 5.3 0 0 1-.47 2.048.1.1 0 0 1-.04.01h-.008l.22-.603.018-.055c.064-.208.06-.198-.133-.292-.113-.055-.209-.146-.313-.22-.128-.091-.259-.179-.384-.274-.154-.118-.302-.243-.454-.363a.6.6 0 0 0-.113-.066q.023-.444.06-.902"/><path fill="#340186" d="m14.22 18.975-.124.026c-.02-.004-.032-.009-.05-.015l-.006-.001c.18-.306.363-.61.54-.916q.575-.998 1.146-1.999a1 1 0 0 0 .054-.108c.029-.058.053-.1.078-.142l.454-.75.008-.001a.1.1 0 0 0 .02-.044c-.002-.001 0 .002.007-.001a.1.1 0 0 0 .015-.033l.008-.004a.2.2 0 0 0 .037-.057l.01.001c.014-.003.02-.007.027-.016a.1.1 0 0 1 .053-.027c-.007.023-.01.038-.018.051l-1.042 1.818-.867 1.52-.38.648c.042.009.064.013.089.021a.3.3 0 0 1-.058.03"/><path fill="#340186" d="m16.312 15.07-.454.75-.079.134c-.062.06-.12.115-.185.17.078-.158.164-.316.259-.484.014-.014.016-.02.015-.028l.01-.002q.023-.037.035-.071l.028-.06q.006-.007.013-.009.012-.009.011-.02l.01-.003c.036-.042.062-.085.095-.122q.119-.129.242-.255m-.836 1.264q.039-.1.103-.205-.04.1-.103.205m-.138.236a.4.4 0 0 1 .053-.113.4.4 0 0 1-.053.112m-.164.281a.2.2 0 0 1 .03-.066.2.2 0 0 1-.03.067m-.141.233a.15.15 0 0 1 .03-.067.15.15 0 0 1-.03.067m.407-.702a.1.1 0 0 1 .021-.045.1.1 0 0 1-.022.045m-.188.328q.002-.02.022-.046a.1.1 0 0 1-.022.046m.034-.05q-.003-.016.013-.04.003.015-.013.04m-.14.234q-.002-.015.014-.038.002.015-.014.038"/><path fill="#e698fe" d="m14.039 18.984-.004.008s0-.005.003-.006q.002-.002 0-.002"/><path fill="#340186" d="M15.107 16.941q-.01-.008.006-.014.005.008-.006.014m.018-.022q-.004-.008.009-.02.005.009-.01.02m.099-.165q-.013-.008.006-.017.006.007-.006.017m.094-.164q-.01-.007.006-.017.007.007-.006.017m-.235.399q-.011-.01.006-.017.007.007-.006.017m.328-.562q-.01-.01.007-.017.006.007-.007.017"/><path fill="#a614fe" d="M14.578 18.28q.424-.765.859-1.523l1.042-1.818c.008-.013.011-.028.019-.05.002-.007 0-.006.002-.009q.005-.013-.016-.02a1 1 0 0 1 .05-.096l-.116.006c-.267.008-.523.025-.78.022-.193-.002-.386-.028-.571-.045l.058-.015c-.137-.03-.196-.112-.135-.188.064-.08.145-.15.227-.213.087-.069.194-.115.274-.19.174-.165.39-.204.61-.243.01.016.017.035.03.048.048.045.098.088.166.15l.066-.025.027.031c.054.054.102.12.166.156.033.02.133-.002.139-.024.024-.086.083-.073.144-.08.03-.004.07-.03.082-.056.062-.136.099-.141.205-.016a3 3 0 0 1-.092.39c-.024.077-.08.143-.103.22-.035.117-.054.239-.08.369 0 .02 0 .03-.007.05l-.04.053c-.006.034-.005.072-.021.1q-.156.258-.323.509c-.135.198-.28.388-.415.586-.099.145-.186.297-.282.443q-.178.266-.362.527c-.127.18-.251.362-.385.537-.109.14-.23.272-.35.405-.013.015-.053.009-.088.01"/><path fill="#9406f8" d="M20.316 11.971c-.117.278-.231.554-.363.822-.086.177-.198.342-.31.51-.079.038-.154.067-.21.117-.187.168-.366.342-.547.515-.084.08-.178.152-.249.243-.124.16-.232.335-.352.5-.128.175-.263.345-.393.518-.149.2-.286.407-.444.598a43 43 0 0 1-.833.978c-.215.246-.44.483-.656.728q-.191.219-.37.448-.27.342-.533.689c-.07.09-.13.186-.203.285q-.178.001-.346-.007c.103-.149.199-.302.31-.445a36 36 0 0 1 1.012-1.215q.197-.229.404-.448c.09-.094.192-.175.28-.27.134-.144.261-.295.389-.444q.139-.163.27-.33.241-.312.478-.625l.478-.63a1 1 0 0 0 .06-.085c.08-.132.144-.277.24-.394.095-.115.225-.2.334-.303.087-.083.164-.176.247-.263.018-.02.039-.05.059-.051.15-.006.219-.112.295-.219.047-.064.116-.112.172-.17.068-.07.144-.134.195-.215.148-.23.282-.47.429-.702.036-.056.1-.094.157-.135"/><path fill="#a614fe" d="M14.5 18.918c.12.001.233.006.364.004.111.001.206.009.3.016 0 0 0 .011-.011.017a8 8 0 0 1-.32.027c-.196 0-.393 0-.601-.004q.015-.015.055-.032c.072-.01.138-.017.212-.028"/><path fill="#b118fe" d="M20.499 11.439a6 6 0 0 1-.15.439c-.045-.114.038-.365.15-.439"/><path fill="#a60efe" d="M16.812 15.163a.1.1 0 0 1 .032-.045.1.1 0 0 1-.032.045"/><path fill="#8d04f2" d="M15.17 18.932c-.1-.001-.195-.009-.3-.016q.083-.142.186-.28.263-.346.534-.688c.12-.152.24-.303.369-.448.216-.245.44-.482.656-.728.281-.323.562-.647.833-.978.158-.191.295-.399.444-.598.13-.173.265-.343.393-.518.12-.165.228-.34.352-.5.07-.09.165-.163.249-.243.181-.173.36-.347.546-.515.057-.05.132-.08.204-.113-.065.13-.13.256-.206.377-.165.265-.335.527-.518.796-.04.052-.066.098-.092.145a.3.3 0 0 1-.045.084 1 1 0 0 0-.145.11q-.116.112-.23.227c-.02.022-.045.043-.06.069-.126.209-.235.43-.437.583-.017.013-.026.039-.04.058-.16.226-.317.456-.485.678q-.191.255-.403.49c-.124.139-.27.257-.388.399-.173.208-.329.43-.495.644a9 9 0 0 1-.323.397c-.082.094-.181.174-.262.27-.075.087-.136.186-.203.28a1 1 0 0 0-.134.018"/><path fill="#8202e8" d="M15.315 18.914a2 2 0 0 1 .192-.28c.08-.096.18-.176.262-.27a9 9 0 0 0 .323-.397c.166-.214.322-.436.495-.644.118-.142.264-.26.388-.398q.211-.237.403-.491c.168-.222.325-.452.486-.678.013-.02.022-.045.04-.058.201-.153.31-.374.436-.583.015-.026.04-.047.06-.069q.114-.115.23-.227a1 1 0 0 1 .14-.105c-.309.525-.625 1.043-.933 1.565-.303.512-.595 1.03-.897 1.543q-.305.518-.626 1.026c-.022.036-.088.063-.134.064-.284.005-.569.002-.865.002"/><path fill="#a60efe" d="M14.844 18.983q.138-.012.309-.023l1.129.002c-.073.006-.158.014-.242.015-.33.005-.66.008-1 .012z"/><path fill="#340186" d="M20.17 12.493q-.039.101-.102.208.039-.103.102-.208m-1.343 2.128a.7.7 0 0 1 .08-.136.7.7 0 0 1-.08.136m1.461-2.407a1.5 1.5 0 0 1-.08.204 1.5 1.5 0 0 1 .08-.204m.048-.117a.4.4 0 0 1-.034.11.4.4 0 0 1 .034-.11m.046-.117a.4.4 0 0 1-.033.11.4.4 0 0 1 .033-.11m-1.052 1.97a.3.3 0 0 1-.043.086.3.3 0 0 1 .043-.086m.513-.848a.15.15 0 0 1-.032.068.15.15 0 0 1 .032-.068m-3.21 5.363a.2.2 0 0 1-.034.072.2.2 0 0 1 .034-.072m3.422-5.759a.3.3 0 0 1-.034.087.3.3 0 0 1 .034-.087m-.095.185a.15.15 0 0 1-.032.068.15.15 0 0 1 .032-.068m-.375.657a.2.2 0 0 1-.033.067.2.2 0 0 1 .033-.067m.61-1.123a.1.1 0 0 1-.011.062.1.1 0 0 1 .01-.062m-.818 1.452q0 .015-.019.04 0-.014.019-.04m.491-.821q.003.015-.012.041-.003-.015.012-.04m.024-.047q.003.015-.012.04-.003-.014.012-.04m-.141.253q.003.014-.011.044-.004-.014.011-.044m.166-.299q0 .013-.014.04-.001-.015.014-.04m-.19.35q0 .016-.02.042-.001-.016.02-.042m.258-.469q.004.015-.012.041-.003-.015.012-.04m-.374.656q.003.015-.012.04-.003-.013.012-.04m.398-.703q.003.015-.012.04-.003-.015.012-.04m-.748 1.264q0 .015-.017.042-.001-.014.016-.042m.28-.443q0 .015-.02.04-.001-.015.02-.04m-.046.067q0 .015-.02.043 0-.015.02-.043m.283-.471q.005.005-.01.02-.005-.005.01-.02m-.353.584q.003.005-.011.024-.003-.006.011-.024m.377-.627q.003.005-.01.016-.003-.005.01-.016m-.4.67q.002.007-.013.027-.003-.006.012-.027m.05-.085q.002.005-.01.018-.005-.006.01-.018m-.259.421q.005.005-.01.019-.005-.005.01-.02m.492-.798q.001.005-.01.02-.005-.005.01-.02m-.048.088q.003.007-.013.027-.003-.006.013-.027"/><path fill="#00d7ff" d="M5.839 12.24q.006-.004.018.013-.007.003-.018-.013"/><path fill="#01eeff" d="M8.715 6.18c-.078.129-.153.255-.243.37-.044.056-.114.092-.174.145-.09.04-.183.064-.269.103q-.334.15-.668.318c-.26.086-.52.162-.777.242-.051.016-.097.046-.154.071-.02-.113.005-.193.118-.266.126-.082.21-.225.328-.322.163-.134.34-.25.511-.374.102-.074.202-.152.306-.223a.4.4 0 0 1 .117-.046c.213-.055.426-.108.645-.169.03-.006.056-.006.09-.006.062.05.114.1.17.158"/><path fill="#340186" d="M17.675 8.08a2.5 2.5 0 0 0-1.317-.605 2.7 2.7 0 0 0-1.156.068 2.7 2.7 0 0 0-.984.519c-.51.422-.844.954-.966 1.608-.042.222-.046.45-.074.683-.006-.064-.006-.136-.006-.228l-.167.225-.001-.428c.047-.26.096-.51.145-.768.15-.37.336-.71.615-1.011.114-.105.217-.2.328-.296q.975-.759 2.191-.646c.137.012.27.057.395.088-.026 0-.042.001-.057-.002a3.3 3.3 0 0 0-1.007-.044c-.107.013-.213.037-.32.056.165.077.321.026.48.004.106-.015.22-.037.32-.013.23.054.454.129.676.205.43.146.8.39 1.12.708.05.05.076.122.112.186-.001 0-.004.003-.01 0a24 24 0 0 1-.317-.309m-2.706-.626.234-.082-.019-.047-.317.116.01.03z"/><path fill="#5cc1e8" d="m5.836 15.399.065-.02c.22.012.326.192.48.297.041.028.08.06.137.102-.067.02-.123.038-.185.061-.101.03-.196.053-.311.076h-.179c-.007 0-.019-.001-.023-.01.047-.125.11-.239.144-.36.02-.076-.026-.143-.128-.129z"/><path fill="#0040b6" d="M5.89 15.92a1 1 0 0 1 .122-.004 1 1 0 0 1-.123.004"/><path fill="#73f4fd" d="m5.013 17.554.002.027c0 .048 0 .08-.009.115-.019.012-.034.02-.04.033-.076.143-.17.258-.348.275-.026.003-.047.043-.078.063-.044-.06-.103-.112-.113-.172-.027-.172-.084-.33-.036-.526.065-.265.183-.48.353-.675.06-.069.062-.133.053-.213-.008-.07.004-.143.007-.214.054.338.109.676.156 1.03.014.096.034.176.053.257"/><path fill="#73f4fd" d="M4.804 16.256c-.003.082-.015.155-.007.225.01.08.007.144-.053.213a1.6 1.6 0 0 0-.353.675c-.048.196.009.354.036.526.01.06.07.112.113.182 0 .124-.009.234-.026.343-.031-.007-.053-.015-.076-.02-.172-.044-.172-.044-.172-.214l-.002-.744c0-.04-.014-.081-.021-.122a2 2 0 0 1 .009-.223c.047-.055.101-.092.12-.143q.08-.212.136-.43c.007-.026-.025-.061-.036-.093-.01-.03-.036-.074-.024-.092.081-.123.173-.24.257-.361.013-.02.005-.054.007-.08l.083.032c.007.107.008.211.01.326m1.032-.834c.101-.02.147.047.127.122-.033.122-.097.236-.15.361a.2.2 0 0 1-.09.004.2.2 0 0 0-.075.027l-.836-.001c-.01-.01-.01-.02-.003-.043.03-.048.047-.088.075-.117A.5.5 0 0 1 5 15.692c.072-.038.145-.085.222-.097.045-.006.099.049.149.077l.04-.06.027.228c.002.028.005.04.008.05l.012-.002.003-.045a1 1 0 0 1 .029-.178c.146-.052.299-.071.347-.243m-.823 2.122q-.031-.107-.054-.237c.005-.006.012.003.014.005.015.076.028.149.04.232"/><path fill="#89f1fe" d="M5.657 15.936a.13.13 0 0 1 .058-.027.13.13 0 0 1-.058.027"/><path fill="#73f4fd" d="m5.014 17.695.001-.108q.022.06.046.147c0 .07 0 .132-.006.197q-.026-.115-.041-.236"/><path fill="#89f1fe" d="M5.834 15.343a.2.2 0 0 1-.053.007c-.229.001-.3-.073-.294-.319q.172.146.347.312m-.441-.196-.002-.13-.026-.006c-.013.02-.023.044-.04.06-.097.087-.214.055-.224-.073-.01-.132-.093-.202-.179-.265-.077-.056-.107-.116-.093-.214.097.059.192.13.29.196.043.03.09.073.138.076.129.008.156.089.17.197q0 .096-.009.183h-.01a.1.1 0 0 1-.015-.024m.017.457c-.012.028-.025.046-.04.068-.05-.028-.103-.083-.148-.077-.077.012-.15.059-.222.097a.5.5 0 0 0-.115.083c-.028.029-.045.069-.074.11a4 4 0 0 1-.003-.29c.019-.04.041-.068.053-.1.027-.076.077-.11.168-.096.17-.003.316.02.381.205m.426-.188c-.047.178-.2.197-.346.24q-.047-.258.27-.252l.02.006.005-.007.042-.004c.009.004.009.008.01.017m-.382.427q.006.023.003.045l-.012.003-.008-.041c0-.007.011-.006.017-.007"/><path fill="#00d7ff" d="M5.781 15.403c.004 0-.001.007-.001.007s-.008-.002-.009-.005c-.001-.002.006-.003.01-.002"/><path fill="#89f1fe" d="M4.235 17.324a.3.3 0 0 1 .03.118v.744c0 .17.001.17.173.214.023.005.045.013.085.021l.329.05a3 3 0 0 0-.14.176l-.025.048c-.018.008-.035.008-.067.002-.057-.003-.098 0-.14.001l-.52.007v-.01q-.046-.061-.092-.109c-.024-.18-.048-.36-.071-.551 0-.17-.003-.33.003-.489.001-.029.05-.084.063-.08.158.041.264-.04.372-.142"/><path fill="#5cc1e8" d="M4.858 18.466c-.11-.01-.214-.027-.326-.044q.002-.163.015-.341c.024-.034.045-.074.07-.077.178-.017.273-.132.349-.275.006-.012.021-.02.04-.033.02.079.03.159.048.245a.8.8 0 0 1-.196.525"/><path fill="#89f1fe" d="M3.962 18.714q.258-.013.519-.016c.041 0 .082-.004.13 0a.75.75 0 0 1-.62.06c-.012-.003-.019-.023-.03-.044m-.094-.119a.5.5 0 0 1 .092.1.3.3 0 0 1-.084-.036.2.2 0 0 1-.008-.064"/><path fill="#5465ff" d="m12.446 12.212-.006.009s0-.008.002-.009z"/><path fill="#0040b6" d="M3.194 10.075c-.003.003-.005-.009-.004-.014q.013-.002.004.014"/><path fill="#89f1fe" d="M4.701 15.896c.01.028.017.062.004.082-.084.121-.176.238-.257.361-.012.018.013.061.024.092.011.032.043.067.036.092-.04.145-.082.29-.135.43-.02.052-.074.09-.121.133-.01-.211-.01-.423-.01-.646a1 1 0 0 1 .117-.532c.11-.01.221-.012.342-.012m-.942.929c-.003.002-.006-.009-.004-.014q.013 0 .004.014"/><path fill="#340186" d="M15.975 15.447c.057-.133.123-.268.2-.426-.07.007-.129.015-.187.017-.378.01-.755.015-1.129-.06-.045-.008-.093-.005-.154-.013a.4.4 0 0 0-.057-.013 1 1 0 0 0-.093-.026 2 2 0 0 1-.137-.031l-.51-.168c-.1-.059-.202-.112-.297-.177-.065-.044-.13-.1-.081-.203.08.01.142.026.214.043.104.042.2.084.298.133.124.055.242.119.368.145.306.065.614.13.925.162.266.026.536.007.805.004.09 0 .178-.013.28-.021l.009-.042.106-.007a.5.5 0 0 0-.05.102l.013.017.001-.003c-.018.01-.035.02-.06.03q-.02.012-.031.021l-.008.002a.4.4 0 0 0-.038.057l-.006.005a.1.1 0 0 0-.017.032s0-.003-.006 0q-.014.026-.02.044h-.001q-.122.125-.242.254c-.033.037-.059.08-.095.122"/><path fill="#340186" d="M13.735 14.388a4 4 0 0 0-.198-.045 7 7 0 0 1 .203-.41l.606-1.128c.087-.163.085-.165.256-.107q.723.245 1.481.166c.157-.016.312-.057.472-.081a.2.2 0 0 1-.04.065 3.37 3.37 0 0 1-2.014-.113l-.86 1.571c.035.015.064.027.092.046zm2.788-1.544.042-.06c.682-.186 1.25-.527 1.659-1.13.06-.096.108-.184.155-.272 0 0-.001-.007.008-.012.033-.042.052-.08.078-.113a.6.6 0 0 1 .097-.092c-.244.633-.683 1.08-1.263 1.395-.244.132-.496.248-.776.284"/><path fill="#340186" d="M18.563 11.156c-.033.034-.069.065-.098.101-.026.033-.045.071-.075.11q.093-.349.209-.715a.2.2 0 0 0 .015-.057c0-.032.001-.065.01-.108a.5.5 0 0 0 .015-.103c0-.01-.001-.02.008-.04.006-.073 0-.136-.004-.198-.001-.032-.003-.063.002-.102.01-.007.014-.007.027-.008.023.03.047.06.05.091.007.06.003.122.003.183h.032q.007-.258.022-.514c.004.002.013.005.014.016.016.377-.026.736-.142 1.091q-.014.037-.018.066l-.007.003c-.077.033-.068.083-.042.144zm.013-.222q-.001 0 0 0"/><path fill="#340186" d="m18.663 10.036-.018-.001a10 10 0 0 1-.083-.396 2.7 2.7 0 0 0-.338-.895A10 10 0 0 1 18 8.4q-.004-.011.01-.01a1 1 0 0 1 .109.078c.335.475.486 1.006.544 1.568m-.29 1.349a3 3 0 0 1-.144.262q.06-.128.144-.262m.267-1.229a1 1 0 0 1 .009.18 1 1 0 0 1-.01-.18m-.006.234a.2.2 0 0 1-.007.087.2.2 0 0 1 .007-.087m-.025.209q.006.018-.007.043-.006-.018.007-.043"/><path fill="#b118fe" d="M16.107 13.892c-.225.045-.442.084-.616.248-.08.076-.187.122-.274.191a1.3 1.3 0 0 0-.227.213c-.061.076-.002.157.135.188-.024.006-.037.01-.067.015a7 7 0 0 1-.527-.104c-.03-.034-.063-.082-.09-.08-.15.015-.229-.104-.334-.169-.092-.057-.087-.105.003-.167.325-.222.687-.371 1.044-.53.073-.033.156-.045.224-.084.112-.062.207-.158.323-.204.164-.065.34-.103.513-.143.23-.052.468-.075.691-.147a6 6 0 0 0 .785-.325c.165-.083.296-.233.462-.312.212-.101.365-.267.519-.426a2.6 2.6 0 0 0 .392-.547c.288-.517.373-1.05.041-1.587-.065-.106-.134-.208-.203-.314a1 1 0 0 1-.078.11l-.002-.072q-.003-.07-.01-.125c-.05-.345-.195-.656-.345-.965.047.007.112-.004.136.023.082.09.208.155.2.31-.002.036.04.08.07.112.113.114.253.21.34.34.133.2.268.406.273.666.002.134.056.268.053.401-.003.181-.04.36-.059.541-.03.296-.213.53-.337.784-.093.19-.252.355-.404.508-.3.299-.609.59-.983.8-.177.1-.328.245-.505.345-.238.137-.49.252-.735.375-.01.006-.023.014-.033.011a.35.35 0 0 0-.375.12"/><path fill="#a614fe" d="M14.085 7.85c-.104.094-.207.188-.318.286a1 1 0 0 1-.132-.034l.052-.359c.124-.145.25-.28.373-.417.102-.115.2-.234.304-.358.095-.053.184-.108.28-.143.117-.043.251-.05.36-.109a.65.65 0 0 1 .371-.066c.076.005.153-.05.232-.06.167-.023.338-.028.486-.144.063.164.087.181.234.12.101-.041.138.035.19.085.028.028.044.07.072.114-.143.172-.335.183-.55.148a.7.7 0 0 1 .005.155c-.15.018-.291.018-.43.036a2.8 2.8 0 0 0-1.361.537c-.072.054-.168.095-.168.209"/><path fill="#340186" d="m18.115 8.461-.104-.072c-.045-.064-.071-.137-.12-.186a2.9 2.9 0 0 0-1.12-.708 7 7 0 0 0-.676-.205c-.1-.024-.215-.002-.321.013-.159.022-.315.073-.48-.004.107-.019.213-.043.32-.056.338-.04.674-.019 1.007.044.015.003.031.001.057.002.01 0 .01 0 .015.005.026.01.047.014.073.018.005 0 .016.002.02.006.016.002.028 0 .05-.003.074.022.139.044.204.067.336.163.664.34.925.616l.104.115c.108.14.206.271.306.408l.028.06.02.035q.04.104.065.192c-.1-.15-.191-.296-.286-.447z"/><path fill="#b118fe" d="M16.782 7.314s-.01-.002-.02-.009l-.075-.017c-.134-.03-.267-.075-.404-.087a3 3 0 0 0-2.19.646c-.008-.111.088-.152.16-.206a2.8 2.8 0 0 1 1.361-.537c.139-.018.28-.018.43-.026.449 0 .857.115 1.249.321l.004.007c-.055-.016-.11-.035-.166-.046a.2.2 0 0 0-.09.014c-.066-.015-.131-.037-.213-.06zm1.621 1.261a.2.2 0 0 1-.027-.061c.007-.027.015-.04.022-.053q.026.043.062.09c.156.314.3.625.351.97a.5.5 0 0 1 .003.13c-.013.061-.017.106-.022.15 0 0-.009-.003-.013-.015-.036-.267-.065-.524-.188-.765-.01-.022-.019-.035-.028-.053 0-.006-.003-.017-.004-.022-.006-.012-.012-.017-.018-.027l-.004-.02c-.007-.012-.013-.017-.018-.03l-.005-.04-.021-.018h.002l-.073-.202a.1.1 0 0 0-.02-.034"/><path fill="#ab12fe" d="M18.395 8.454c-.004.02-.012.033-.02.053q-.149-.184-.299-.39c.054.032.12.064.166.114.059.064.1.143.153.223"/><path fill="#b118fe" d="m17.297 7.406.196.092-.019.035a3 3 0 0 1-.176-.119z"/><path fill="#ab12fe" d="M16.992 6.782c.014.017.02.035.027.052h-.053a.2.2 0 0 1 .026-.052"/><path fill="#b118fe" d="M17.692 7.678q-.02-.021-.031-.043l.02-.007a.1.1 0 0 1 .011.05m.11.057a.04.04 0 0 1-.025.005v-.01q.012-.001.025.005"/><path fill="#340186" d="M16.37 14.987q.004-.022.03-.054a.1.1 0 0 1-.03.054m-.05.082q-.003-.015.014-.04.003.015-.014.04m.097-.138q0-.01.02-.015 0 .011-.02.015m-.07.093q-.006-.009.009-.029.005.01-.01.029m-1.816-.371c.17.032.34.064.52.096.202.015.395.041.589.043.256.003.512-.014.78-.022.006.023.001.044.002.043-.103.008-.192.02-.281.021-.269.003-.54.022-.805-.004a9 9 0 0 1-.925-.162c-.126-.026-.244-.09-.36-.144.137.03.268.067.402.11.014.007.023.009.04.013q.024.005.039.006"/><path fill="#a614fe" d="M16.5 14.88c-.002.003-.01-.004-.01-.008q.013-.008.01.008"/><path fill="#340186" d="m14.96 7.456-.083.015-.01-.03.317-.116.019.047c-.078.028-.156.055-.243.084"/><path fill="#b118fe" d="M14.448 14.628c-.13-.037-.26-.074-.4-.111-.104-.043-.2-.085-.304-.127-.01-.011-.01-.02-.005-.044.101-.186.197-.359.298-.524.117.062.143-.035.188-.096.027-.037.045-.085.08-.11.14-.099.288-.19.432-.286.166-.108.327-.228.543-.211.033.003.069-.021.117-.037q-.17-.043-.298-.08c.478.065.942.06 1.404-.044.585-.132 1.107-.38 1.538-.806.075-.073.145-.152.218-.22.011.016.03.034.031.032.075-.063.161-.12.22-.196.113-.145.222-.297.31-.458.06-.107.088-.234.115-.355a1.2 1.2 0 0 0 .037-.327c-.006-.078.035-.197-.103-.233-.003-.19-.004-.37 0-.553a.2.2 0 0 0-.013-.077l-.032-.039.077-.118c.069.106.138.208.203.314.332.537.247 1.07-.04 1.587a2.6 2.6 0 0 1-.393.547c-.154.159-.307.325-.52.426-.165.079-.296.23-.46.312a6 6 0 0 1-.786.325c-.223.072-.461.095-.69.147-.174.04-.35.078-.514.143-.116.046-.211.142-.323.204-.068.039-.151.05-.224.083-.357.16-.719.309-1.044.53-.09.063-.095.111-.003.168.105.065.184.184.334.17.027-.003.06.045.09.08-.011.008-.022.007-.045-.002-.02-.01-.03-.012-.038-.014M15.9 13.1l.075-.005v-.01h-.171v.015zm-.277-.01q-.002 0 0 0"/><path fill="#340186" d="M14.031 13.814q-.14.258-.292.525a.4.4 0 0 1-.098-.033l.86-1.57a3.37 3.37 0 0 0 2.015.112c.287-.04.54-.156.783-.288.58-.315 1.019-.762 1.263-1.395a.4.4 0 0 1 .028-.055c.019-.055.031-.098.043-.14l.005-.007q.014-.036.018-.065c.111-.35.153-.71.137-1.086a1 1 0 0 1 .02-.15c.008.012.008.03.01.055.01.02.02.033.032.058l.008.072.004.558a7 7 0 0 1-.047.294 2.86 2.86 0 0 1-.562 1.224q-.106.117-.217.23c-.43.424-.953.673-1.538.805a3.9 3.9 0 0 1-1.41.043c-.03.001-.044.003-.063-.001-.02-.012-.037-.018-.058-.027a.2.2 0 0 0-.052-.01c-.018-.003-.029-.004-.047-.01-.09-.028-.17-.059-.253-.072-.036-.006-.097.014-.112.041-.163.295-.319.594-.477.892"/><path fill="#340186" d="m18.538 8.905.005.02c.004.018.01.023.017.026l.004.025c.01.027.018.04.027.053.123.233.152.49.183.755l-.017.527-.032-.001c0-.061.004-.123-.002-.183-.004-.031-.028-.06-.051-.09-.067-.563-.218-1.094-.553-1.569a1 1 0 0 1 .083-.107c.095.151.186.298.286.447.007.003.005.004.008.008a.04.04 0 0 0 .02.02l.004.04a.1.1 0 0 0 .018.029m.088 2.067a.6.6 0 0 1-.035.131c-.033-.048-.042-.098.035-.13m.024-.07a.14.14 0 0 1-.011.06.14.14 0 0 1 .012-.06m-1.958-3.609a.13.13 0 0 1 .063.011.13.13 0 0 1-.063-.01m.092.023q.01-.007.035-.005-.01.007-.035.005"/><path fill="#ab12fe" d="M18.403 8.582q.007 0 .017.02-.007 0-.017-.02"/><path fill="#340186" d="M18.59 9.02q-.012-.006-.026-.039.012.007.027.04m-.054-.122q-.007 0-.018-.017.007 0 .018.017m.023.047q-.01.003-.018-.016.007-.001.017.016m-.045-.116q-.009.003-.019-.014.006-.002.02.013m-4.063 5.804q.007-.004.027.007-.006.004-.027-.007"/><path fill="#b118fe" d="m15.036 13.006.046-.005.315.081c-.048.016-.084.04-.117.037-.216-.017-.377.103-.543.211-.144.095-.291.187-.433.287-.034.024-.052.072-.079.109-.045.06-.071.158-.188.096q.227-.458.47-.9c.016-.027.077-.047.113-.041.083.013.164.044.257.078.024.008.038.006.051.005a.1.1 0 0 1 .049.017.2.2 0 0 0 .059.025m3.223-1.075c.28-.373.476-.777.56-1.232q.025-.133.049-.283c.139.015.098.134.104.212.007.108-.013.22-.037.327a1.4 1.4 0 0 1-.114.355 3.5 3.5 0 0 1-.31.458c-.06.077-.146.133-.221.196-.002.002-.02-.016-.031-.033m-2.369 1.17h-.086v-.015h.17l.001.01z"/><path fill="#340186" d="M18.87 9.842a.14.14 0 0 1-.01-.064q.01.02.01.064M15.03 13q-.016.003-.048-.015.016-.004.048.015m-.11-.038q-.009.006-.036.001.01-.005.036 0"/></svg>